<svg xmlns="http://www.w3.org/2000/svg" width="200.00mm" height="280.00mm" viewBox="0 0 200.00 280.00">
<rect width="100%" height="100%" fill="#fffdf7"/>
<rect x="10.00" y="10.00" width="180.00" height="260.00" fill="none" stroke="#d7d0c4" stroke-width="0.35"/>
<line x1="8.00" y1="270.00" x2="12.00" y2="270.00" stroke="#b35c37" stroke-width="0.4"/>
<line x1="10.00" y1="268.00" x2="10.00" y2="272.00" stroke="#b35c37" stroke-width="0.4"/>
<line x1="10.00" y1="270.00" x2="100.00" y2="140.00" stroke="#c8c2b8" stroke-width="0.20" stroke-linecap="round" stroke-dasharray="2 2"/>
<line x1="100.00" y1="140.00" x2="145.00" y2="140.00" stroke="#c8c2b8" stroke-width="0.20" stroke-linecap="round" stroke-dasharray="2 2"/>
<line x1="145.00" y1="140.00" x2="144.99" y2="139.00" stroke="#141414" stroke-width="1.00" stroke-linecap="round"/>
<line x1="144.99" y1="139.00" x2="144.96" y2="138.00" stroke="#141414" stroke-width="1.00" stroke-linecap="round"/>
<line x1="144.96" y1="138.00" x2="144.90" y2="137.00" stroke="#141414" stroke-width="1.00" stroke-linecap="round"/>
<line x1="144.90" y1="137.00" x2="144.82" y2="136.01" stroke="#141414" stroke-width="1.00" stroke-linecap="round"/>
<line x1="144.82" y1="136.01" x2="144.72" y2="135.01" stroke="#141414" stroke-width="1.00" stroke-linecap="round"/>
<line x1="144.72" y1="135.01" x2="144.60" y2="134.02" stroke="#141414" stroke-width="1.00" stroke-linecap="round"/>
<line x1="144.60" y1="134.02" x2="144.46" y2="133.03" stroke="#141414" stroke-width="1.00" stroke-linecap="round"/>
<line x1="144.46" y1="133.03" x2="144.29" y2="132.05" stroke="#141414" stroke-width="1.00" stroke-linecap="round"/>
<line x1="144.29" y1="132.05" x2="144.10" y2="131.07" stroke="#141414" stroke-width="1.00" stroke-linecap="round"/>
<line x1="144.10" y1="131.07" x2="143.90" y2="130.09" stroke="#141414" stroke-width="1.00" stroke-linecap="round"/>
<line x1="143.90" y1="130.09" x2="143.66" y2="129.12" stroke="#141414" stroke-width="1.00" stroke-linecap="round"/>
<line x1="143.66" y1="129.12" x2="143.41" y2="128.15" stroke="#141414" stroke-width="1.00" stroke-linecap="round"/>
<line x1="143.41" y1="128.15" x2="143.14" y2="127.19" stroke="#141414" stroke-width="1.00" stroke-linecap="round"/>
<line x1="143.14" y1="127.19" x2="142.84" y2="126.24" stroke="#141414" stroke-width="1.00" stroke-linecap="round"/>
<line x1="142.84" y1="126.24" x2="142.53" y2="125.29" stroke="#141414" stroke-width="1.00" stroke-linecap="round"/>
<line x1="142.53" y1="125.29" x2="142.19" y2="124.35" stroke="#141414" stroke-width="1.00" stroke-linecap="round"/>
<line x1="142.19" y1="124.35" x2="141.83" y2="123.42" stroke="#141414" stroke-width="1.00" stroke-linecap="round"/>
<line x1="141.83" y1="123.42" x2="141.45" y2="122.49" stroke="#141414" stroke-width="1.00" stroke-linecap="round"/>
<line x1="141.45" y1="122.49" x2="141.06" y2="121.58" stroke="#141414" stroke-width="1.00" stroke-linecap="round"/>
<line x1="141.06" y1="121.58" x2="140.64" y2="120.67" stroke="#141414" stroke-width="1.00" stroke-linecap="round"/>
<line x1="140.64" y1="120.67" x2="140.20" y2="119.77" stroke="#141414" stroke-width="1.00" stroke-linecap="round"/>
<line x1="140.20" y1="119.77" x2="139.74" y2="118.88" stroke="#141414" stroke-width="1.00" stroke-linecap="round"/>
<line x1="139.74" y1="118.88" x2="139.26" y2="118.01" stroke="#141414" stroke-width="1.00" stroke-linecap="round"/>
<line x1="139.26" y1="118.01" x2="138.76" y2="117.14" stroke="#141414" stroke-width="1.00" stroke-linecap="round"/>
<line x1="138.76" y1="117.14" x2="138.24" y2="116.29" stroke="#141414" stroke-width="1.00" stroke-linecap="round"/>
<line x1="138.24" y1="116.29" x2="137.71" y2="115.44" stroke="#141414" stroke-width="1.00" stroke-linecap="round"/>
<line x1="137.71" y1="115.44" x2="137.15" y2="114.61" stroke="#141414" stroke-width="1.00" stroke-linecap="round"/>
<line x1="137.15" y1="114.61" x2="136.58" y2="113.79" stroke="#141414" stroke-width="1.00" stroke-linecap="round"/>
<line x1="136.58" y1="113.79" x2="135.99" y2="112.99" stroke="#141414" stroke-width="1.00" stroke-linecap="round"/>
<line x1="135.99" y1="112.99" x2="135.38" y2="112.19" stroke="#141414" stroke-width="1.00" stroke-linecap="round"/>
<line x1="135.38" y1="112.19" x2="134.76" y2="111.42" stroke="#141414" stroke-width="1.00" stroke-linecap="round"/>
<line x1="134.76" y1="111.42" x2="134.11" y2="110.65" stroke="#141414" stroke-width="1.00" stroke-linecap="round"/>
<line x1="134.11" y1="110.65" x2="133.45" y2="109.90" stroke="#141414" stroke-width="1.00" stroke-linecap="round"/>
<line x1="133.45" y1="109.90" x2="132.78" y2="109.17" stroke="#141414" stroke-width="1.00" stroke-linecap="round"/>
<line x1="132.78" y1="109.17" x2="132.08" y2="108.45" stroke="#141414" stroke-width="1.00" stroke-linecap="round"/>
<line x1="132.08" y1="108.45" x2="131.38" y2="107.74" stroke="#141414" stroke-width="1.00" stroke-linecap="round"/>
<line x1="131.38" y1="107.74" x2="130.65" y2="107.05" stroke="#141414" stroke-width="1.00" stroke-linecap="round"/>
<line x1="130.65" y1="107.05" x2="129.91" y2="106.38" stroke="#141414" stroke-width="1.00" stroke-linecap="round"/>
<line x1="129.91" y1="106.38" x2="129.16" y2="105.73" stroke="#141414" stroke-width="1.00" stroke-linecap="round"/>
<line x1="129.16" y1="105.73" x2="128.39" y2="105.09" stroke="#141414" stroke-width="1.00" stroke-linecap="round"/>
<line x1="128.39" y1="105.09" x2="127.61" y2="104.46" stroke="#141414" stroke-width="1.00" stroke-linecap="round"/>
<line x1="127.61" y1="104.46" x2="126.81" y2="103.86" stroke="#141414" stroke-width="1.00" stroke-linecap="round"/>
<line x1="126.81" y1="103.86" x2="126.00" y2="103.27" stroke="#141414" stroke-width="1.00" stroke-linecap="round"/>
<line x1="126.00" y1="103.27" x2="125.18" y2="102.71" stroke="#141414" stroke-width="1.00" stroke-linecap="round"/>
<line x1="125.18" y1="102.71" x2="124.35" y2="102.16" stroke="#141414" stroke-width="1.00" stroke-linecap="round"/>
<line x1="124.35" y1="102.16" x2="123.50" y2="101.62" stroke="#141414" stroke-width="1.00" stroke-linecap="round"/>
<line x1="123.50" y1="101.62" x2="122.64" y2="101.11" stroke="#141414" stroke-width="1.00" stroke-linecap="round"/>
<line x1="122.64" y1="101.11" x2="121.78" y2="100.62" stroke="#141414" stroke-width="1.00" stroke-linecap="round"/>
<line x1="121.78" y1="100.62" x2="120.90" y2="100.15" stroke="#141414" stroke-width="1.00" stroke-linecap="round"/>
<line x1="120.90" y1="100.15" x2="120.01" y2="99.69" stroke="#141414" stroke-width="1.00" stroke-linecap="round"/>
<line x1="120.01" y1="99.69" x2="119.11" y2="99.26" stroke="#141414" stroke-width="1.00" stroke-linecap="round"/>
<line x1="119.11" y1="99.26" x2="118.20" y2="98.84" stroke="#141414" stroke-width="1.00" stroke-linecap="round"/>
<line x1="118.20" y1="98.84" x2="117.28" y2="98.45" stroke="#141414" stroke-width="1.00" stroke-linecap="round"/>
<line x1="117.28" y1="98.45" x2="116.35" y2="98.08" stroke="#141414" stroke-width="1.00" stroke-linecap="round"/>
<line x1="116.35" y1="98.08" x2="115.42" y2="97.72" stroke="#141414" stroke-width="1.00" stroke-linecap="round"/>
<line x1="115.42" y1="97.72" x2="114.47" y2="97.39" stroke="#141414" stroke-width="1.00" stroke-linecap="round"/>
<line x1="114.47" y1="97.39" x2="113.53" y2="97.08" stroke="#141414" stroke-width="1.00" stroke-linecap="round"/>
<line x1="113.53" y1="97.08" x2="112.57" y2="96.79" stroke="#141414" stroke-width="1.00" stroke-linecap="round"/>
<line x1="112.57" y1="96.79" x2="111.61" y2="96.52" stroke="#141414" stroke-width="1.00" stroke-linecap="round"/>
<line x1="111.61" y1="96.52" x2="110.64" y2="96.28" stroke="#141414" stroke-width="1.00" stroke-linecap="round"/>
<line x1="110.64" y1="96.28" x2="109.67" y2="96.05" stroke="#141414" stroke-width="1.00" stroke-linecap="round"/>
<line x1="109.67" y1="96.05" x2="108.69" y2="95.85" stroke="#141414" stroke-width="1.00" stroke-linecap="round"/>
<line x1="108.69" y1="95.85" x2="107.70" y2="95.66" stroke="#141414" stroke-width="1.00" stroke-linecap="round"/>
<line x1="107.70" y1="95.66" x2="106.72" y2="95.50" stroke="#141414" stroke-width="1.00" stroke-linecap="round"/>
<line x1="106.72" y1="95.50" x2="105.73" y2="95.37" stroke="#141414" stroke-width="1.00" stroke-linecap="round"/>
<line x1="105.73" y1="95.37" x2="104.74" y2="95.25" stroke="#141414" stroke-width="1.00" stroke-linecap="round"/>
<line x1="104.74" y1="95.25" x2="103.74" y2="95.16" stroke="#141414" stroke-width="1.00" stroke-linecap="round"/>
<line x1="103.74" y1="95.16" x2="102.75" y2="95.08" stroke="#141414" stroke-width="1.00" stroke-linecap="round"/>
<line x1="102.75" y1="95.08" x2="101.75" y2="95.03" stroke="#141414" stroke-width="1.00" stroke-linecap="round"/>
<line x1="101.75" y1="95.03" x2="100.75" y2="95.01" stroke="#141414" stroke-width="1.00" stroke-linecap="round"/>
<line x1="100.75" y1="95.01" x2="99.75" y2="95.00" stroke="#141414" stroke-width="1.00" stroke-linecap="round"/>
<line x1="99.75" y1="95.00" x2="98.75" y2="95.02" stroke="#141414" stroke-width="1.00" stroke-linecap="round"/>
<line x1="98.75" y1="95.02" x2="97.75" y2="95.06" stroke="#141414" stroke-width="1.00" stroke-linecap="round"/>
<line x1="97.75" y1="95.06" x2="96.76" y2="95.12" stroke="#141414" stroke-width="1.00" stroke-linecap="round"/>
<line x1="96.76" y1="95.12" x2="95.76" y2="95.20" stroke="#141414" stroke-width="1.00" stroke-linecap="round"/>
<line x1="95.76" y1="95.20" x2="94.77" y2="95.31" stroke="#141414" stroke-width="1.00" stroke-linecap="round"/>
<line x1="94.77" y1="95.31" x2="93.78" y2="95.43" stroke="#141414" stroke-width="1.00" stroke-linecap="round"/>
<line x1="93.78" y1="95.43" x2="92.79" y2="95.58" stroke="#141414" stroke-width="1.00" stroke-linecap="round"/>
<line x1="92.79" y1="95.58" x2="91.80" y2="95.75" stroke="#141414" stroke-width="1.00" stroke-linecap="round"/>
<line x1="91.80" y1="95.75" x2="90.82" y2="95.95" stroke="#141414" stroke-width="1.00" stroke-linecap="round"/>
<line x1="90.82" y1="95.95" x2="89.85" y2="96.16" stroke="#141414" stroke-width="1.00" stroke-linecap="round"/>
<line x1="89.85" y1="96.16" x2="88.88" y2="96.40" stroke="#141414" stroke-width="1.00" stroke-linecap="round"/>
<line x1="88.88" y1="96.40" x2="87.91" y2="96.65" stroke="#141414" stroke-width="1.00" stroke-linecap="round"/>
<line x1="87.91" y1="96.65" x2="86.95" y2="96.93" stroke="#141414" stroke-width="1.00" stroke-linecap="round"/>
<line x1="86.95" y1="96.93" x2="86.00" y2="97.23" stroke="#141414" stroke-width="1.00" stroke-linecap="round"/>
<line x1="86.00" y1="97.23" x2="85.05" y2="97.55" stroke="#141414" stroke-width="1.00" stroke-linecap="round"/>
<line x1="85.05" y1="97.55" x2="84.11" y2="97.90" stroke="#141414" stroke-width="1.00" stroke-linecap="round"/>
<line x1="84.11" y1="97.90" x2="83.18" y2="98.26" stroke="#141414" stroke-width="1.00" stroke-linecap="round"/>
<line x1="83.18" y1="98.26" x2="82.26" y2="98.64" stroke="#141414" stroke-width="1.00" stroke-linecap="round"/>
<line x1="82.26" y1="98.64" x2="81.35" y2="99.05" stroke="#141414" stroke-width="1.00" stroke-linecap="round"/>
<line x1="81.35" y1="99.05" x2="80.44" y2="99.47" stroke="#141414" stroke-width="1.00" stroke-linecap="round"/>
<line x1="80.44" y1="99.47" x2="79.55" y2="99.92" stroke="#141414" stroke-width="1.00" stroke-linecap="round"/>
<line x1="79.55" y1="99.92" x2="78.66" y2="100.38" stroke="#141414" stroke-width="1.00" stroke-linecap="round"/>
<line x1="78.66" y1="100.38" x2="77.79" y2="100.86" stroke="#141414" stroke-width="1.00" stroke-linecap="round"/>
<line x1="77.79" y1="100.86" x2="76.93" y2="101.37" stroke="#141414" stroke-width="1.00" stroke-linecap="round"/>
<line x1="76.93" y1="101.37" x2="76.07" y2="101.89" stroke="#141414" stroke-width="1.00" stroke-linecap="round"/>
<line x1="76.07" y1="101.89" x2="75.23" y2="102.43" stroke="#141414" stroke-width="1.00" stroke-linecap="round"/>
<line x1="75.23" y1="102.43" x2="74.41" y2="102.99" stroke="#141414" stroke-width="1.00" stroke-linecap="round"/>
<line x1="74.41" y1="102.99" x2="73.59" y2="103.56" stroke="#141414" stroke-width="1.00" stroke-linecap="round"/>
<line x1="73.59" y1="103.56" x2="72.79" y2="104.16" stroke="#141414" stroke-width="1.00" stroke-linecap="round"/>
<line x1="72.79" y1="104.16" x2="72.00" y2="104.77" stroke="#141414" stroke-width="1.00" stroke-linecap="round"/>
<line x1="72.00" y1="104.77" x2="71.22" y2="105.40" stroke="#141414" stroke-width="1.00" stroke-linecap="round"/>
<line x1="71.22" y1="105.40" x2="70.46" y2="106.05" stroke="#141414" stroke-width="1.00" stroke-linecap="round"/>
<line x1="70.46" y1="106.05" x2="69.72" y2="106.71" stroke="#141414" stroke-width="1.00" stroke-linecap="round"/>
<line x1="69.72" y1="106.71" x2="68.98" y2="107.40" stroke="#141414" stroke-width="1.00" stroke-linecap="round"/>
<line x1="68.98" y1="107.40" x2="68.27" y2="108.09" stroke="#141414" stroke-width="1.00" stroke-linecap="round"/>
<line x1="68.27" y1="108.09" x2="67.57" y2="108.80" stroke="#141414" stroke-width="1.00" stroke-linecap="round"/>
<line x1="67.57" y1="108.80" x2="66.88" y2="109.53" stroke="#141414" stroke-width="1.00" stroke-linecap="round"/>
<line x1="66.88" y1="109.53" x2="66.22" y2="110.27" stroke="#141414" stroke-width="1.00" stroke-linecap="round"/>
<line x1="66.22" y1="110.27" x2="65.56" y2="111.03" stroke="#141414" stroke-width="1.00" stroke-linecap="round"/>
<line x1="65.56" y1="111.03" x2="64.93" y2="111.80" stroke="#141414" stroke-width="1.00" stroke-linecap="round"/>
<line x1="64.93" y1="111.80" x2="64.31" y2="112.59" stroke="#141414" stroke-width="1.00" stroke-linecap="round"/>
<line x1="64.31" y1="112.59" x2="63.71" y2="113.39" stroke="#141414" stroke-width="1.00" stroke-linecap="round"/>
<line x1="63.71" y1="113.39" x2="63.13" y2="114.20" stroke="#141414" stroke-width="1.00" stroke-linecap="round"/>
<line x1="63.13" y1="114.20" x2="62.57" y2="115.03" stroke="#141414" stroke-width="1.00" stroke-linecap="round"/>
<line x1="62.57" y1="115.03" x2="62.02" y2="115.86" stroke="#141414" stroke-width="1.00" stroke-linecap="round"/>
<line x1="62.02" y1="115.86" x2="61.49" y2="116.71" stroke="#141414" stroke-width="1.00" stroke-linecap="round"/>
<line x1="61.49" y1="116.71" x2="60.99" y2="117.57" stroke="#141414" stroke-width="1.00" stroke-linecap="round"/>
<line x1="60.99" y1="117.57" x2="60.50" y2="118.44" stroke="#141414" stroke-width="1.00" stroke-linecap="round"/>
<line x1="60.50" y1="118.44" x2="60.03" y2="119.33" stroke="#141414" stroke-width="1.00" stroke-linecap="round"/>
<line x1="60.03" y1="119.33" x2="59.58" y2="120.22" stroke="#141414" stroke-width="1.00" stroke-linecap="round"/>
<line x1="59.58" y1="120.22" x2="59.15" y2="121.12" stroke="#141414" stroke-width="1.00" stroke-linecap="round"/>
<line x1="59.15" y1="121.12" x2="58.74" y2="122.03" stroke="#141414" stroke-width="1.00" stroke-linecap="round"/>
<line x1="58.74" y1="122.03" x2="58.35" y2="122.95" stroke="#141414" stroke-width="1.00" stroke-linecap="round"/>
<line x1="58.35" y1="122.95" x2="57.99" y2="123.88" stroke="#141414" stroke-width="1.00" stroke-linecap="round"/>
<line x1="57.99" y1="123.88" x2="57.64" y2="124.82" stroke="#141414" stroke-width="1.00" stroke-linecap="round"/>
<line x1="57.64" y1="124.82" x2="57.31" y2="125.76" stroke="#141414" stroke-width="1.00" stroke-linecap="round"/>
<line x1="57.31" y1="125.76" x2="57.01" y2="126.71" stroke="#141414" stroke-width="1.00" stroke-linecap="round"/>
<line x1="57.01" y1="126.71" x2="56.72" y2="127.67" stroke="#141414" stroke-width="1.00" stroke-linecap="round"/>
<line x1="56.72" y1="127.67" x2="56.46" y2="128.63" stroke="#141414" stroke-width="1.00" stroke-linecap="round"/>
<line x1="56.46" y1="128.63" x2="56.22" y2="129.60" stroke="#141414" stroke-width="1.00" stroke-linecap="round"/>
<line x1="56.22" y1="129.60" x2="56.00" y2="130.58" stroke="#141414" stroke-width="1.00" stroke-linecap="round"/>
<line x1="56.00" y1="130.58" x2="55.80" y2="131.56" stroke="#141414" stroke-width="1.00" stroke-linecap="round"/>
<line x1="55.80" y1="131.56" x2="55.62" y2="132.54" stroke="#141414" stroke-width="1.00" stroke-linecap="round"/>
<line x1="55.62" y1="132.54" x2="55.47" y2="133.53" stroke="#141414" stroke-width="1.00" stroke-linecap="round"/>
<line x1="55.47" y1="133.53" x2="55.34" y2="134.52" stroke="#141414" stroke-width="1.00" stroke-linecap="round"/>
<line x1="55.34" y1="134.52" x2="55.22" y2="135.51" stroke="#141414" stroke-width="1.00" stroke-linecap="round"/>
<line x1="55.22" y1="135.51" x2="55.14" y2="136.51" stroke="#141414" stroke-width="1.00" stroke-linecap="round"/>
<line x1="55.14" y1="136.51" x2="55.07" y2="137.50" stroke="#141414" stroke-width="1.00" stroke-linecap="round"/>
<line x1="55.07" y1="137.50" x2="55.02" y2="138.50" stroke="#141414" stroke-width="1.00" stroke-linecap="round"/>
<line x1="55.02" y1="138.50" x2="55.00" y2="139.50" stroke="#141414" stroke-width="1.00" stroke-linecap="round"/>
<line x1="55.00" y1="139.50" x2="55.00" y2="140.50" stroke="#141414" stroke-width="1.00" stroke-linecap="round"/>
<line x1="55.00" y1="140.50" x2="55.02" y2="141.50" stroke="#141414" stroke-width="1.00" stroke-linecap="round"/>
<line x1="55.02" y1="141.50" x2="55.07" y2="142.50" stroke="#141414" stroke-width="1.00" stroke-linecap="round"/>
<line x1="55.07" y1="142.50" x2="55.14" y2="143.49" stroke="#141414" stroke-width="1.00" stroke-linecap="round"/>
<line x1="55.14" y1="143.49" x2="55.22" y2="144.49" stroke="#141414" stroke-width="1.00" stroke-linecap="round"/>
<line x1="55.22" y1="144.49" x2="55.34" y2="145.48" stroke="#141414" stroke-width="1.00" stroke-linecap="round"/>
<line x1="55.34" y1="145.48" x2="55.47" y2="146.47" stroke="#141414" stroke-width="1.00" stroke-linecap="round"/>
<line x1="55.47" y1="146.47" x2="55.62" y2="147.46" stroke="#141414" stroke-width="1.00" stroke-linecap="round"/>
<line x1="55.62" y1="147.46" x2="55.80" y2="148.44" stroke="#141414" stroke-width="1.00" stroke-linecap="round"/>
<line x1="55.80" y1="148.44" x2="56.00" y2="149.42" stroke="#141414" stroke-width="1.00" stroke-linecap="round"/>
<line x1="56.00" y1="149.42" x2="56.22" y2="150.40" stroke="#141414" stroke-width="1.00" stroke-linecap="round"/>
<line x1="56.22" y1="150.40" x2="56.46" y2="151.37" stroke="#141414" stroke-width="1.00" stroke-linecap="round"/>
<line x1="56.46" y1="151.37" x2="56.72" y2="152.33" stroke="#141414" stroke-width="1.00" stroke-linecap="round"/>
<line x1="56.72" y1="152.33" x2="57.01" y2="153.29" stroke="#141414" stroke-width="1.00" stroke-linecap="round"/>
<line x1="57.01" y1="153.29" x2="57.31" y2="154.24" stroke="#141414" stroke-width="1.00" stroke-linecap="round"/>
<line x1="57.31" y1="154.24" x2="57.64" y2="155.18" stroke="#141414" stroke-width="1.00" stroke-linecap="round"/>
<line x1="57.64" y1="155.18" x2="57.99" y2="156.12" stroke="#141414" stroke-width="1.00" stroke-linecap="round"/>
<line x1="57.99" y1="156.12" x2="58.35" y2="157.05" stroke="#141414" stroke-width="1.00" stroke-linecap="round"/>
<line x1="58.35" y1="157.05" x2="58.74" y2="157.97" stroke="#141414" stroke-width="1.00" stroke-linecap="round"/>
<line x1="58.74" y1="157.97" x2="59.15" y2="158.88" stroke="#141414" stroke-width="1.00" stroke-linecap="round"/>
<line x1="59.15" y1="158.88" x2="59.58" y2="159.78" stroke="#141414" stroke-width="1.00" stroke-linecap="round"/>
<line x1="59.58" y1="159.78" x2="60.03" y2="160.67" stroke="#141414" stroke-width="1.00" stroke-linecap="round"/>
<line x1="60.03" y1="160.67" x2="60.50" y2="161.56" stroke="#141414" stroke-width="1.00" stroke-linecap="round"/>
<line x1="60.50" y1="161.56" x2="60.99" y2="162.43" stroke="#141414" stroke-width="1.00" stroke-linecap="round"/>
<line x1="60.99" y1="162.43" x2="61.49" y2="163.29" stroke="#141414" stroke-width="1.00" stroke-linecap="round"/>
<line x1="61.49" y1="163.29" x2="62.02" y2="164.14" stroke="#141414" stroke-width="1.00" stroke-linecap="round"/>
<line x1="62.02" y1="164.14" x2="62.57" y2="164.97" stroke="#141414" stroke-width="1.00" stroke-linecap="round"/>
<line x1="62.57" y1="164.97" x2="63.13" y2="165.80" stroke="#141414" stroke-width="1.00" stroke-linecap="round"/>
<line x1="63.13" y1="165.80" x2="63.71" y2="166.61" stroke="#141414" stroke-width="1.00" stroke-linecap="round"/>
<line x1="63.71" y1="166.61" x2="64.31" y2="167.41" stroke="#141414" stroke-width="1.00" stroke-linecap="round"/>
<line x1="64.31" y1="167.41" x2="64.93" y2="168.20" stroke="#141414" stroke-width="1.00" stroke-linecap="round"/>
<line x1="64.93" y1="168.20" x2="65.56" y2="168.97" stroke="#141414" stroke-width="1.00" stroke-linecap="round"/>
<line x1="65.56" y1="168.97" x2="66.22" y2="169.73" stroke="#141414" stroke-width="1.00" stroke-linecap="round"/>
<line x1="66.22" y1="169.73" x2="66.88" y2="170.47" stroke="#141414" stroke-width="1.00" stroke-linecap="round"/>
<line x1="66.88" y1="170.47" x2="67.57" y2="171.20" stroke="#141414" stroke-width="1.00" stroke-linecap="round"/>
<line x1="67.57" y1="171.20" x2="68.27" y2="171.91" stroke="#141414" stroke-width="1.00" stroke-linecap="round"/>
<line x1="68.27" y1="171.91" x2="68.98" y2="172.60" stroke="#141414" stroke-width="1.00" stroke-linecap="round"/>
<line x1="68.98" y1="172.60" x2="69.72" y2="173.29" stroke="#141414" stroke-width="1.00" stroke-linecap="round"/>
<line x1="69.72" y1="173.29" x2="70.46" y2="173.95" stroke="#141414" stroke-width="1.00" stroke-linecap="round"/>
<line x1="70.46" y1="173.95" x2="71.22" y2="174.60" stroke="#141414" stroke-width="1.00" stroke-linecap="round"/>
<line x1="71.22" y1="174.60" x2="72.00" y2="175.23" stroke="#141414" stroke-width="1.00" stroke-linecap="round"/>
<line x1="72.00" y1="175.23" x2="72.79" y2="175.84" stroke="#141414" stroke-width="1.00" stroke-linecap="round"/>
<line x1="72.79" y1="175.84" x2="73.59" y2="176.44" stroke="#141414" stroke-width="1.00" stroke-linecap="round"/>
<line x1="73.59" y1="176.44" x2="74.41" y2="177.01" stroke="#141414" stroke-width="1.00" stroke-linecap="round"/>
<line x1="74.41" y1="177.01" x2="75.23" y2="177.57" stroke="#141414" stroke-width="1.00" stroke-linecap="round"/>
<line x1="75.23" y1="177.57" x2="76.07" y2="178.11" stroke="#141414" stroke-width="1.00" stroke-linecap="round"/>
<line x1="76.07" y1="178.11" x2="76.93" y2="178.63" stroke="#141414" stroke-width="1.00" stroke-linecap="round"/>
<line x1="76.93" y1="178.63" x2="77.79" y2="179.14" stroke="#141414" stroke-width="1.00" stroke-linecap="round"/>
<line x1="77.79" y1="179.14" x2="78.66" y2="179.62" stroke="#141414" stroke-width="1.00" stroke-linecap="round"/>
<line x1="78.66" y1="179.62" x2="79.55" y2="180.08" stroke="#141414" stroke-width="1.00" stroke-linecap="round"/>
<line x1="79.55" y1="180.08" x2="80.44" y2="180.53" stroke="#141414" stroke-width="1.00" stroke-linecap="round"/>
<line x1="80.44" y1="180.53" x2="81.35" y2="180.95" stroke="#141414" stroke-width="1.00" stroke-linecap="round"/>
<line x1="81.35" y1="180.95" x2="82.26" y2="181.36" stroke="#141414" stroke-width="1.00" stroke-linecap="round"/>
<line x1="82.26" y1="181.36" x2="83.18" y2="181.74" stroke="#141414" stroke-width="1.00" stroke-linecap="round"/>
<line x1="83.18" y1="181.74" x2="84.11" y2="182.10" stroke="#141414" stroke-width="1.00" stroke-linecap="round"/>
<line x1="84.11" y1="182.10" x2="85.05" y2="182.45" stroke="#141414" stroke-width="1.00" stroke-linecap="round"/>
<line x1="85.05" y1="182.45" x2="86.00" y2="182.77" stroke="#141414" stroke-width="1.00" stroke-linecap="round"/>
<line x1="86.00" y1="182.77" x2="86.95" y2="183.07" stroke="#141414" stroke-width="1.00" stroke-linecap="round"/>
<line x1="86.95" y1="183.07" x2="87.91" y2="183.35" stroke="#141414" stroke-width="1.00" stroke-linecap="round"/>
<line x1="87.91" y1="183.35" x2="88.88" y2="183.60" stroke="#141414" stroke-width="1.00" stroke-linecap="round"/>
<line x1="88.88" y1="183.60" x2="89.85" y2="183.84" stroke="#141414" stroke-width="1.00" stroke-linecap="round"/>
<line x1="89.85" y1="183.84" x2="90.82" y2="184.05" stroke="#141414" stroke-width="1.00" stroke-linecap="round"/>
<line x1="90.82" y1="184.05" x2="91.80" y2="184.25" stroke="#141414" stroke-width="1.00" stroke-linecap="round"/>
<line x1="91.80" y1="184.25" x2="92.79" y2="184.42" stroke="#141414" stroke-width="1.00" stroke-linecap="round"/>
<line x1="92.79" y1="184.42" x2="93.78" y2="184.57" stroke="#141414" stroke-width="1.00" stroke-linecap="round"/>
<line x1="93.78" y1="184.57" x2="94.77" y2="184.69" stroke="#141414" stroke-width="1.00" stroke-linecap="round"/>
<line x1="94.77" y1="184.69" x2="95.76" y2="184.80" stroke="#141414" stroke-width="1.00" stroke-linecap="round"/>
<line x1="95.76" y1="184.80" x2="96.76" y2="184.88" stroke="#141414" stroke-width="1.00" stroke-linecap="round"/>
<line x1="96.76" y1="184.88" x2="97.75" y2="184.94" stroke="#141414" stroke-width="1.00" stroke-linecap="round"/>
<line x1="97.75" y1="184.94" x2="98.75" y2="184.98" stroke="#141414" stroke-width="1.00" stroke-linecap="round"/>
<line x1="98.75" y1="184.98" x2="99.75" y2="185.00" stroke="#141414" stroke-width="1.00" stroke-linecap="round"/>
<line x1="99.75" y1="185.00" x2="100.75" y2="184.99" stroke="#141414" stroke-width="1.00" stroke-linecap="round"/>
<line x1="100.75" y1="184.99" x2="101.75" y2="184.97" stroke="#141414" stroke-width="1.00" stroke-linecap="round"/>
<line x1="101.75" y1="184.97" x2="102.75" y2="184.92" stroke="#141414" stroke-width="1.00" stroke-linecap="round"/>
<line x1="102.75" y1="184.92" x2="103.74" y2="184.84" stroke="#141414" stroke-width="1.00" stroke-linecap="round"/>
<line x1="103.74" y1="184.84" x2="104.74" y2="184.75" stroke="#141414" stroke-width="1.00" stroke-linecap="round"/>
<line x1="104.74" y1="184.75" x2="105.73" y2="184.63" stroke="#141414" stroke-width="1.00" stroke-linecap="round"/>
<line x1="105.73" y1="184.63" x2="106.72" y2="184.50" stroke="#141414" stroke-width="1.00" stroke-linecap="round"/>
<line x1="106.72" y1="184.50" x2="107.70" y2="184.34" stroke="#141414" stroke-width="1.00" stroke-linecap="round"/>
<line x1="107.70" y1="184.34" x2="108.69" y2="184.15" stroke="#141414" stroke-width="1.00" stroke-linecap="round"/>
<line x1="108.69" y1="184.15" x2="109.67" y2="183.95" stroke="#141414" stroke-width="1.00" stroke-linecap="round"/>
<line x1="109.67" y1="183.95" x2="110.64" y2="183.72" stroke="#141414" stroke-width="1.00" stroke-linecap="round"/>
<line x1="110.64" y1="183.72" x2="111.61" y2="183.48" stroke="#141414" stroke-width="1.00" stroke-linecap="round"/>
<line x1="111.61" y1="183.48" x2="112.57" y2="183.21" stroke="#141414" stroke-width="1.00" stroke-linecap="round"/>
<line x1="112.57" y1="183.21" x2="113.53" y2="182.92" stroke="#141414" stroke-width="1.00" stroke-linecap="round"/>
<line x1="113.53" y1="182.92" x2="114.47" y2="182.61" stroke="#141414" stroke-width="1.00" stroke-linecap="round"/>
<line x1="114.47" y1="182.61" x2="115.42" y2="182.28" stroke="#141414" stroke-width="1.00" stroke-linecap="round"/>
<line x1="115.42" y1="182.28" x2="116.35" y2="181.92" stroke="#141414" stroke-width="1.00" stroke-linecap="round"/>
<line x1="116.35" y1="181.92" x2="117.28" y2="181.55" stroke="#141414" stroke-width="1.00" stroke-linecap="round"/>
<line x1="117.28" y1="181.55" x2="118.20" y2="181.16" stroke="#141414" stroke-width="1.00" stroke-linecap="round"/>
<line x1="118.20" y1="181.16" x2="119.11" y2="180.74" stroke="#141414" stroke-width="1.00" stroke-linecap="round"/>
<line x1="119.11" y1="180.74" x2="120.01" y2="180.31" stroke="#141414" stroke-width="1.00" stroke-linecap="round"/>
<line x1="120.01" y1="180.31" x2="120.90" y2="179.85" stroke="#141414" stroke-width="1.00" stroke-linecap="round"/>
<line x1="120.90" y1="179.85" x2="121.78" y2="179.38" stroke="#141414" stroke-width="1.00" stroke-linecap="round"/>
<line x1="121.78" y1="179.38" x2="122.64" y2="178.89" stroke="#141414" stroke-width="1.00" stroke-linecap="round"/>
<line x1="122.64" y1="178.89" x2="123.50" y2="178.38" stroke="#141414" stroke-width="1.00" stroke-linecap="round"/>
<line x1="123.50" y1="178.38" x2="124.35" y2="177.84" stroke="#141414" stroke-width="1.00" stroke-linecap="round"/>
<line x1="124.35" y1="177.84" x2="125.18" y2="177.29" stroke="#141414" stroke-width="1.00" stroke-linecap="round"/>
<line x1="125.18" y1="177.29" x2="126.00" y2="176.73" stroke="#141414" stroke-width="1.00" stroke-linecap="round"/>
<line x1="126.00" y1="176.73" x2="126.81" y2="176.14" stroke="#141414" stroke-width="1.00" stroke-linecap="round"/>
<line x1="126.81" y1="176.14" x2="127.61" y2="175.54" stroke="#141414" stroke-width="1.00" stroke-linecap="round"/>
<line x1="127.61" y1="175.54" x2="128.39" y2="174.91" stroke="#141414" stroke-width="1.00" stroke-linecap="round"/>
<line x1="128.39" y1="174.91" x2="129.16" y2="174.27" stroke="#141414" stroke-width="1.00" stroke-linecap="round"/>
<line x1="129.16" y1="174.27" x2="129.91" y2="173.62" stroke="#141414" stroke-width="1.00" stroke-linecap="round"/>
<line x1="129.91" y1="173.62" x2="130.65" y2="172.95" stroke="#141414" stroke-width="1.00" stroke-linecap="round"/>
<line x1="130.65" y1="172.95" x2="131.38" y2="172.26" stroke="#141414" stroke-width="1.00" stroke-linecap="round"/>
<line x1="131.38" y1="172.26" x2="132.08" y2="171.55" stroke="#141414" stroke-width="1.00" stroke-linecap="round"/>
<line x1="132.08" y1="171.55" x2="132.78" y2="170.83" stroke="#141414" stroke-width="1.00" stroke-linecap="round"/>
<line x1="132.78" y1="170.83" x2="133.45" y2="170.10" stroke="#141414" stroke-width="1.00" stroke-linecap="round"/>
<line x1="133.45" y1="170.10" x2="134.11" y2="169.35" stroke="#141414" stroke-width="1.00" stroke-linecap="round"/>
<line x1="134.11" y1="169.35" x2="134.76" y2="168.58" stroke="#141414" stroke-width="1.00" stroke-linecap="round"/>
<line x1="134.76" y1="168.58" x2="135.38" y2="167.81" stroke="#141414" stroke-width="1.00" stroke-linecap="round"/>
<line x1="135.38" y1="167.81" x2="135.99" y2="167.01" stroke="#141414" stroke-width="1.00" stroke-linecap="round"/>
<line x1="135.99" y1="167.01" x2="136.58" y2="166.21" stroke="#141414" stroke-width="1.00" stroke-linecap="round"/>
<line x1="136.58" y1="166.21" x2="137.15" y2="165.39" stroke="#141414" stroke-width="1.00" stroke-linecap="round"/>
<line x1="137.15" y1="165.39" x2="137.71" y2="164.56" stroke="#141414" stroke-width="1.00" stroke-linecap="round"/>
<line x1="137.71" y1="164.56" x2="138.24" y2="163.71" stroke="#141414" stroke-width="1.00" stroke-linecap="round"/>
<line x1="138.24" y1="163.71" x2="138.76" y2="162.86" stroke="#141414" stroke-width="1.00" stroke-linecap="round"/>
<line x1="138.76" y1="162.86" x2="139.26" y2="161.99" stroke="#141414" stroke-width="1.00" stroke-linecap="round"/>
<line x1="139.26" y1="161.99" x2="139.74" y2="161.12" stroke="#141414" stroke-width="1.00" stroke-linecap="round"/>
<line x1="139.74" y1="161.12" x2="140.20" y2="160.23" stroke="#141414" stroke-width="1.00" stroke-linecap="round"/>
<line x1="140.20" y1="160.23" x2="140.64" y2="159.33" stroke="#141414" stroke-width="1.00" stroke-linecap="round"/>
<line x1="140.64" y1="159.33" x2="141.06" y2="158.42" stroke="#141414" stroke-width="1.00" stroke-linecap="round"/>
<line x1="141.06" y1="158.42" x2="141.45" y2="157.51" stroke="#141414" stroke-width="1.00" stroke-linecap="round"/>
<line x1="141.45" y1="157.51" x2="141.83" y2="156.58" stroke="#141414" stroke-width="1.00" stroke-linecap="round"/>
<line x1="141.83" y1="156.58" x2="142.19" y2="155.65" stroke="#141414" stroke-width="1.00" stroke-linecap="round"/>
<line x1="142.19" y1="155.65" x2="142.53" y2="154.71" stroke="#141414" stroke-width="1.00" stroke-linecap="round"/>
<line x1="142.53" y1="154.71" x2="142.84" y2="153.76" stroke="#141414" stroke-width="1.00" stroke-linecap="round"/>
<line x1="142.84" y1="153.76" x2="143.14" y2="152.81" stroke="#141414" stroke-width="1.00" stroke-linecap="round"/>
<line x1="143.14" y1="152.81" x2="143.41" y2="151.85" stroke="#141414" stroke-width="1.00" stroke-linecap="round"/>
<line x1="143.41" y1="151.85" x2="143.66" y2="150.88" stroke="#141414" stroke-width="1.00" stroke-linecap="round"/>
<line x1="143.66" y1="150.88" x2="143.90" y2="149.91" stroke="#141414" stroke-width="1.00" stroke-linecap="round"/>
<line x1="143.90" y1="149.91" x2="144.10" y2="148.93" stroke="#141414" stroke-width="1.00" stroke-linecap="round"/>
<line x1="144.10" y1="148.93" x2="144.29" y2="147.95" stroke="#141414" stroke-width="1.00" stroke-linecap="round"/>
<line x1="144.29" y1="147.95" x2="144.46" y2="146.97" stroke="#141414" stroke-width="1.00" stroke-linecap="round"/>
<line x1="144.46" y1="146.97" x2="144.60" y2="145.98" stroke="#141414" stroke-width="1.00" stroke-linecap="round"/>
<line x1="144.60" y1="145.98" x2="144.72" y2="144.99" stroke="#141414" stroke-width="1.00" stroke-linecap="round"/>
<line x1="144.72" y1="144.99" x2="144.82" y2="143.99" stroke="#141414" stroke-width="1.00" stroke-linecap="round"/>
<line x1="144.82" y1="143.99" x2="144.90" y2="143.00" stroke="#141414" stroke-width="1.00" stroke-linecap="round"/>
<line x1="144.90" y1="143.00" x2="144.96" y2="142.00" stroke="#141414" stroke-width="1.00" stroke-linecap="round"/>
<line x1="144.96" y1="142.00" x2="144.99" y2="141.00" stroke="#141414" stroke-width="1.00" stroke-linecap="round"/>
<line x1="144.99" y1="141.00" x2="145.00" y2="140.00" stroke="#141414" stroke-width="1.00" stroke-linecap="round"/>
<line x1="145.00" y1="140.00" x2="100.00" y2="140.00" stroke="#c8c2b8" stroke-width="0.20" stroke-linecap="round" stroke-dasharray="2 2"/>
<line x1="100.00" y1="140.00" x2="10.00" y2="270.00" stroke="#c8c2b8" stroke-width="0.20" stroke-linecap="round" stroke-dasharray="2 2"/>
</svg>
