<svg xmlns="http://www.w3.org/2000/svg" width="200.49mm" height="280.00mm" viewBox="0 0 200.49 280.00">
<rect width="100%" height="100%" fill="#fffdf7"/>
<rect x="10.00" y="10.00" width="180.00" height="260.00" fill="none" stroke="#d7d0c4" stroke-width="0.35"/>
<line x1="8.00" y1="270.00" x2="12.00" y2="270.00" stroke="#b35c37" stroke-width="0.4"/>
<line x1="10.00" y1="268.00" x2="10.00" y2="272.00" stroke="#b35c37" stroke-width="0.4"/>
<line x1="10.00" y1="270.00" x2="25.00" y2="250.00" stroke="#c8c2b8" stroke-width="0.20" stroke-linecap="round" stroke-dasharray="2 2"/>
<line x1="25.00" y1="250.00" x2="80.00" y2="250.00" stroke="#141414" stroke-width="0.30" stroke-linecap="round"/>
<line x1="80.00" y1="250.00" x2="25.00" y2="236.00" stroke="#c8c2b8" stroke-width="0.20" stroke-linecap="round" stroke-dasharray="2 2"/>
<line x1="25.00" y1="236.00" x2="80.00" y2="236.00" stroke="#141414" stroke-width="0.50" stroke-linecap="round"/>
<line x1="80.00" y1="236.00" x2="25.00" y2="222.00" stroke="#c8c2b8" stroke-width="0.20" stroke-linecap="round" stroke-dasharray="2 2"/>
<line x1="25.00" y1="222.00" x2="80.00" y2="222.00" stroke="#141414" stroke-width="0.75" stroke-linecap="round"/>
<line x1="80.00" y1="222.00" x2="25.00" y2="208.00" stroke="#c8c2b8" stroke-width="0.20" stroke-linecap="round" stroke-dasharray="2 2"/>
<line x1="25.00" y1="208.00" x2="80.00" y2="208.00" stroke="#141414" stroke-width="1.26" stroke-linecap="round"/>
<line x1="80.00" y1="208.00" x2="25.00" y2="194.00" stroke="#c8c2b8" stroke-width="0.20" stroke-linecap="round" stroke-dasharray="2 2"/>
<line x1="25.00" y1="194.00" x2="80.00" y2="194.00" stroke="#141414" stroke-width="2.50" stroke-linecap="round"/>
<line x1="80.00" y1="194.00" x2="105.00" y2="250.00" stroke="#c8c2b8" stroke-width="0.20" stroke-linecap="round" stroke-dasharray="2 2"/>
<circle cx="105.00" cy="250.00" r="0.05" fill="#141414"/>
<line x1="105.00" y1="250.00" x2="105.00" y2="236.00" stroke="#c8c2b8" stroke-width="0.20" stroke-linecap="round" stroke-dasharray="2 2"/>
<circle cx="105.00" cy="236.00" r="0.10" fill="#141414"/>
<line x1="105.00" y1="236.00" x2="105.00" y2="218.00" stroke="#c8c2b8" stroke-width="0.20" stroke-linecap="round" stroke-dasharray="2 2"/>
<circle cx="105.00" cy="218.00" r="0.75" fill="#141414"/>
<line x1="105.00" y1="218.00" x2="105.00" y2="196.00" stroke="#c8c2b8" stroke-width="0.20" stroke-linecap="round" stroke-dasharray="2 2"/>
<circle cx="105.00" cy="196.00" r="1.10" fill="#141414"/>
<line x1="105.00" y1="196.00" x2="105.00" y2="166.00" stroke="#c8c2b8" stroke-width="0.20" stroke-linecap="round" stroke-dasharray="2 2"/>
<circle cx="105.00" cy="166.00" r="1.75" fill="#141414"/>
<line x1="105.00" y1="166.00" x2="145.00" y2="236.00" stroke="#c8c2b8" stroke-width="0.20" stroke-linecap="round" stroke-dasharray="2 2"/>
<line x1="145.00" y1="236.00" x2="151.00" y2="236.00" stroke="#c8c2b8" stroke-width="0.20" stroke-linecap="round" stroke-dasharray="2 2"/>
<line x1="151.00" y1="236.00" x2="150.92" y2="235.01" stroke="#141414" stroke-width="0.50" stroke-linecap="round"/>
<line x1="150.92" y1="235.01" x2="150.67" y2="234.05" stroke="#141414" stroke-width="0.50" stroke-linecap="round"/>
<line x1="150.67" y1="234.05" x2="150.28" y2="233.14" stroke="#141414" stroke-width="0.50" stroke-linecap="round"/>
<line x1="150.28" y1="233.14" x2="149.73" y2="232.31" stroke="#141414" stroke-width="0.50" stroke-linecap="round"/>
<line x1="149.73" y1="232.31" x2="149.06" y2="231.59" stroke="#141414" stroke-width="0.50" stroke-linecap="round"/>
<line x1="149.06" y1="231.59" x2="148.28" y2="230.98" stroke="#141414" stroke-width="0.50" stroke-linecap="round"/>
<line x1="148.28" y1="230.98" x2="147.41" y2="230.51" stroke="#141414" stroke-width="0.50" stroke-linecap="round"/>
<line x1="147.41" y1="230.51" x2="146.47" y2="230.18" stroke="#141414" stroke-width="0.50" stroke-linecap="round"/>
<line x1="146.47" y1="230.18" x2="145.50" y2="230.02" stroke="#141414" stroke-width="0.50" stroke-linecap="round"/>
<line x1="145.50" y1="230.02" x2="144.50" y2="230.02" stroke="#141414" stroke-width="0.50" stroke-linecap="round"/>
<line x1="144.50" y1="230.02" x2="143.53" y2="230.18" stroke="#141414" stroke-width="0.50" stroke-linecap="round"/>
<line x1="143.53" y1="230.18" x2="142.59" y2="230.51" stroke="#141414" stroke-width="0.50" stroke-linecap="round"/>
<line x1="142.59" y1="230.51" x2="141.72" y2="230.98" stroke="#141414" stroke-width="0.50" stroke-linecap="round"/>
<line x1="141.72" y1="230.98" x2="140.94" y2="231.59" stroke="#141414" stroke-width="0.50" stroke-linecap="round"/>
<line x1="140.94" y1="231.59" x2="140.27" y2="232.31" stroke="#141414" stroke-width="0.50" stroke-linecap="round"/>
<line x1="140.27" y1="232.31" x2="139.72" y2="233.14" stroke="#141414" stroke-width="0.50" stroke-linecap="round"/>
<line x1="139.72" y1="233.14" x2="139.33" y2="234.05" stroke="#141414" stroke-width="0.50" stroke-linecap="round"/>
<line x1="139.33" y1="234.05" x2="139.08" y2="235.01" stroke="#141414" stroke-width="0.50" stroke-linecap="round"/>
<line x1="139.08" y1="235.01" x2="139.00" y2="236.00" stroke="#141414" stroke-width="0.50" stroke-linecap="round"/>
<line x1="139.00" y1="236.00" x2="139.08" y2="236.99" stroke="#141414" stroke-width="0.50" stroke-linecap="round"/>
<line x1="139.08" y1="236.99" x2="139.33" y2="237.95" stroke="#141414" stroke-width="0.50" stroke-linecap="round"/>
<line x1="139.33" y1="237.95" x2="139.72" y2="238.86" stroke="#141414" stroke-width="0.50" stroke-linecap="round"/>
<line x1="139.72" y1="238.86" x2="140.27" y2="239.69" stroke="#141414" stroke-width="0.50" stroke-linecap="round"/>
<line x1="140.27" y1="239.69" x2="140.94" y2="240.41" stroke="#141414" stroke-width="0.50" stroke-linecap="round"/>
<line x1="140.94" y1="240.41" x2="141.72" y2="241.02" stroke="#141414" stroke-width="0.50" stroke-linecap="round"/>
<line x1="141.72" y1="241.02" x2="142.59" y2="241.49" stroke="#141414" stroke-width="0.50" stroke-linecap="round"/>
<line x1="142.59" y1="241.49" x2="143.53" y2="241.82" stroke="#141414" stroke-width="0.50" stroke-linecap="round"/>
<line x1="143.53" y1="241.82" x2="144.50" y2="241.98" stroke="#141414" stroke-width="0.50" stroke-linecap="round"/>
<line x1="144.50" y1="241.98" x2="145.50" y2="241.98" stroke="#141414" stroke-width="0.50" stroke-linecap="round"/>
<line x1="145.50" y1="241.98" x2="146.47" y2="241.82" stroke="#141414" stroke-width="0.50" stroke-linecap="round"/>
<line x1="146.47" y1="241.82" x2="147.41" y2="241.49" stroke="#141414" stroke-width="0.50" stroke-linecap="round"/>
<line x1="147.41" y1="241.49" x2="148.28" y2="241.02" stroke="#141414" stroke-width="0.50" stroke-linecap="round"/>
<line x1="148.28" y1="241.02" x2="149.06" y2="240.41" stroke="#141414" stroke-width="0.50" stroke-linecap="round"/>
<line x1="149.06" y1="240.41" x2="149.73" y2="239.69" stroke="#141414" stroke-width="0.50" stroke-linecap="round"/>
<line x1="149.73" y1="239.69" x2="150.28" y2="238.86" stroke="#141414" stroke-width="0.50" stroke-linecap="round"/>
<line x1="150.28" y1="238.86" x2="150.67" y2="237.95" stroke="#141414" stroke-width="0.50" stroke-linecap="round"/>
<line x1="150.67" y1="237.95" x2="150.92" y2="236.99" stroke="#141414" stroke-width="0.50" stroke-linecap="round"/>
<line x1="150.92" y1="236.99" x2="151.00" y2="236.00" stroke="#141414" stroke-width="0.50" stroke-linecap="round"/>
<line x1="151.00" y1="236.00" x2="171.00" y2="236.00" stroke="#c8c2b8" stroke-width="0.20" stroke-linecap="round" stroke-dasharray="2 2"/>
<line x1="171.00" y1="236.00" x2="179.00" y2="236.00" stroke="#c8c2b8" stroke-width="0.20" stroke-linecap="round" stroke-dasharray="2 2"/>
<line x1="179.00" y1="236.00" x2="178.94" y2="235.02" stroke="#141414" stroke-width="0.75" stroke-linecap="round"/>
<line x1="178.94" y1="235.02" x2="178.76" y2="234.05" stroke="#141414" stroke-width="0.75" stroke-linecap="round"/>
<line x1="178.76" y1="234.05" x2="178.46" y2="233.11" stroke="#141414" stroke-width="0.75" stroke-linecap="round"/>
<line x1="178.46" y1="233.11" x2="178.05" y2="232.22" stroke="#141414" stroke-width="0.75" stroke-linecap="round"/>
<line x1="178.05" y1="232.22" x2="177.53" y2="231.38" stroke="#141414" stroke-width="0.75" stroke-linecap="round"/>
<line x1="177.53" y1="231.38" x2="176.91" y2="230.61" stroke="#141414" stroke-width="0.75" stroke-linecap="round"/>
<line x1="176.91" y1="230.61" x2="176.20" y2="229.92" stroke="#141414" stroke-width="0.75" stroke-linecap="round"/>
<line x1="176.20" y1="229.92" x2="175.42" y2="229.33" stroke="#141414" stroke-width="0.75" stroke-linecap="round"/>
<line x1="175.42" y1="229.33" x2="174.57" y2="228.84" stroke="#141414" stroke-width="0.75" stroke-linecap="round"/>
<line x1="174.57" y1="228.84" x2="173.66" y2="228.45" stroke="#141414" stroke-width="0.75" stroke-linecap="round"/>
<line x1="173.66" y1="228.45" x2="172.71" y2="228.19" stroke="#141414" stroke-width="0.75" stroke-linecap="round"/>
<line x1="172.71" y1="228.19" x2="171.74" y2="228.03" stroke="#141414" stroke-width="0.75" stroke-linecap="round"/>
<line x1="171.74" y1="228.03" x2="170.75" y2="228.00" stroke="#141414" stroke-width="0.75" stroke-linecap="round"/>
<line x1="170.75" y1="228.00" x2="169.77" y2="228.09" stroke="#141414" stroke-width="0.75" stroke-linecap="round"/>
<line x1="169.77" y1="228.09" x2="168.81" y2="228.31" stroke="#141414" stroke-width="0.75" stroke-linecap="round"/>
<line x1="168.81" y1="228.31" x2="167.88" y2="228.63" stroke="#141414" stroke-width="0.75" stroke-linecap="round"/>
<line x1="167.88" y1="228.63" x2="167.00" y2="229.07" stroke="#141414" stroke-width="0.75" stroke-linecap="round"/>
<line x1="167.00" y1="229.07" x2="166.18" y2="229.62" stroke="#141414" stroke-width="0.75" stroke-linecap="round"/>
<line x1="166.18" y1="229.62" x2="165.43" y2="230.26" stroke="#141414" stroke-width="0.75" stroke-linecap="round"/>
<line x1="165.43" y1="230.26" x2="164.77" y2="230.98" stroke="#141414" stroke-width="0.75" stroke-linecap="round"/>
<line x1="164.77" y1="230.98" x2="164.20" y2="231.79" stroke="#141414" stroke-width="0.75" stroke-linecap="round"/>
<line x1="164.20" y1="231.79" x2="163.73" y2="232.66" stroke="#141414" stroke-width="0.75" stroke-linecap="round"/>
<line x1="163.73" y1="232.66" x2="163.38" y2="233.57" stroke="#141414" stroke-width="0.75" stroke-linecap="round"/>
<line x1="163.38" y1="233.57" x2="163.14" y2="234.53" stroke="#141414" stroke-width="0.75" stroke-linecap="round"/>
<line x1="163.14" y1="234.53" x2="163.02" y2="235.51" stroke="#141414" stroke-width="0.75" stroke-linecap="round"/>
<line x1="163.02" y1="235.51" x2="163.02" y2="236.49" stroke="#141414" stroke-width="0.75" stroke-linecap="round"/>
<line x1="163.02" y1="236.49" x2="163.14" y2="237.47" stroke="#141414" stroke-width="0.75" stroke-linecap="round"/>
<line x1="163.14" y1="237.47" x2="163.38" y2="238.43" stroke="#141414" stroke-width="0.75" stroke-linecap="round"/>
<line x1="163.38" y1="238.43" x2="163.73" y2="239.34" stroke="#141414" stroke-width="0.75" stroke-linecap="round"/>
<line x1="163.73" y1="239.34" x2="164.20" y2="240.21" stroke="#141414" stroke-width="0.75" stroke-linecap="round"/>
<line x1="164.20" y1="240.21" x2="164.77" y2="241.02" stroke="#141414" stroke-width="0.75" stroke-linecap="round"/>
<line x1="164.77" y1="241.02" x2="165.43" y2="241.74" stroke="#141414" stroke-width="0.75" stroke-linecap="round"/>
<line x1="165.43" y1="241.74" x2="166.18" y2="242.38" stroke="#141414" stroke-width="0.75" stroke-linecap="round"/>
<line x1="166.18" y1="242.38" x2="167.00" y2="242.93" stroke="#141414" stroke-width="0.75" stroke-linecap="round"/>
<line x1="167.00" y1="242.93" x2="167.88" y2="243.37" stroke="#141414" stroke-width="0.75" stroke-linecap="round"/>
<line x1="167.88" y1="243.37" x2="168.81" y2="243.69" stroke="#141414" stroke-width="0.75" stroke-linecap="round"/>
<line x1="168.81" y1="243.69" x2="169.77" y2="243.91" stroke="#141414" stroke-width="0.75" stroke-linecap="round"/>
<line x1="169.77" y1="243.91" x2="170.75" y2="244.00" stroke="#141414" stroke-width="0.75" stroke-linecap="round"/>
<line x1="170.75" y1="244.00" x2="171.74" y2="243.97" stroke="#141414" stroke-width="0.75" stroke-linecap="round"/>
<line x1="171.74" y1="243.97" x2="172.71" y2="243.81" stroke="#141414" stroke-width="0.75" stroke-linecap="round"/>
<line x1="172.71" y1="243.81" x2="173.66" y2="243.55" stroke="#141414" stroke-width="0.75" stroke-linecap="round"/>
<line x1="173.66" y1="243.55" x2="174.57" y2="243.16" stroke="#141414" stroke-width="0.75" stroke-linecap="round"/>
<line x1="174.57" y1="243.16" x2="175.42" y2="242.67" stroke="#141414" stroke-width="0.75" stroke-linecap="round"/>
<line x1="175.42" y1="242.67" x2="176.20" y2="242.08" stroke="#141414" stroke-width="0.75" stroke-linecap="round"/>
<line x1="176.20" y1="242.08" x2="176.91" y2="241.39" stroke="#141414" stroke-width="0.75" stroke-linecap="round"/>
<line x1="176.91" y1="241.39" x2="177.53" y2="240.62" stroke="#141414" stroke-width="0.75" stroke-linecap="round"/>
<line x1="177.53" y1="240.62" x2="178.05" y2="239.78" stroke="#141414" stroke-width="0.75" stroke-linecap="round"/>
<line x1="178.05" y1="239.78" x2="178.46" y2="238.89" stroke="#141414" stroke-width="0.75" stroke-linecap="round"/>
<line x1="178.46" y1="238.89" x2="178.76" y2="237.95" stroke="#141414" stroke-width="0.75" stroke-linecap="round"/>
<line x1="178.76" y1="237.95" x2="178.94" y2="236.98" stroke="#141414" stroke-width="0.75" stroke-linecap="round"/>
<line x1="178.94" y1="236.98" x2="179.00" y2="236.00" stroke="#141414" stroke-width="0.75" stroke-linecap="round"/>
<line x1="179.00" y1="236.00" x2="169.00" y2="206.00" stroke="#c8c2b8" stroke-width="0.20" stroke-linecap="round" stroke-dasharray="2 2"/>
<line x1="169.00" y1="206.00" x2="180.00" y2="206.00" stroke="#c8c2b8" stroke-width="0.20" stroke-linecap="round" stroke-dasharray="2 2"/>
<line x1="180.00" y1="206.00" x2="179.96" y2="205.01" stroke="#141414" stroke-width="1.26" stroke-linecap="round"/>
<line x1="179.96" y1="205.01" x2="179.82" y2="204.04" stroke="#141414" stroke-width="1.26" stroke-linecap="round"/>
<line x1="179.82" y1="204.04" x2="179.60" y2="203.07" stroke="#141414" stroke-width="1.26" stroke-linecap="round"/>
<line x1="179.60" y1="203.07" x2="179.30" y2="202.13" stroke="#141414" stroke-width="1.26" stroke-linecap="round"/>
<line x1="179.30" y1="202.13" x2="178.91" y2="201.23" stroke="#141414" stroke-width="1.26" stroke-linecap="round"/>
<line x1="178.91" y1="201.23" x2="178.44" y2="200.36" stroke="#141414" stroke-width="1.26" stroke-linecap="round"/>
<line x1="178.44" y1="200.36" x2="177.90" y2="199.53" stroke="#141414" stroke-width="1.26" stroke-linecap="round"/>
<line x1="177.90" y1="199.53" x2="177.28" y2="198.76" stroke="#141414" stroke-width="1.26" stroke-linecap="round"/>
<line x1="177.28" y1="198.76" x2="176.60" y2="198.05" stroke="#141414" stroke-width="1.26" stroke-linecap="round"/>
<line x1="176.60" y1="198.05" x2="175.86" y2="197.40" stroke="#141414" stroke-width="1.26" stroke-linecap="round"/>
<line x1="175.86" y1="197.40" x2="175.06" y2="196.82" stroke="#141414" stroke-width="1.26" stroke-linecap="round"/>
<line x1="175.06" y1="196.82" x2="174.21" y2="196.31" stroke="#141414" stroke-width="1.26" stroke-linecap="round"/>
<line x1="174.21" y1="196.31" x2="173.32" y2="195.89" stroke="#141414" stroke-width="1.26" stroke-linecap="round"/>
<line x1="173.32" y1="195.89" x2="172.40" y2="195.54" stroke="#141414" stroke-width="1.26" stroke-linecap="round"/>
<line x1="172.40" y1="195.54" x2="171.45" y2="195.28" stroke="#141414" stroke-width="1.26" stroke-linecap="round"/>
<line x1="171.45" y1="195.28" x2="170.48" y2="195.10" stroke="#141414" stroke-width="1.26" stroke-linecap="round"/>
<line x1="170.48" y1="195.10" x2="169.49" y2="195.01" stroke="#141414" stroke-width="1.26" stroke-linecap="round"/>
<line x1="169.49" y1="195.01" x2="168.51" y2="195.01" stroke="#141414" stroke-width="1.26" stroke-linecap="round"/>
<line x1="168.51" y1="195.01" x2="167.52" y2="195.10" stroke="#141414" stroke-width="1.26" stroke-linecap="round"/>
<line x1="167.52" y1="195.10" x2="166.55" y2="195.28" stroke="#141414" stroke-width="1.26" stroke-linecap="round"/>
<line x1="166.55" y1="195.28" x2="165.60" y2="195.54" stroke="#141414" stroke-width="1.26" stroke-linecap="round"/>
<line x1="165.60" y1="195.54" x2="164.68" y2="195.89" stroke="#141414" stroke-width="1.26" stroke-linecap="round"/>
<line x1="164.68" y1="195.89" x2="163.79" y2="196.31" stroke="#141414" stroke-width="1.26" stroke-linecap="round"/>
<line x1="163.79" y1="196.31" x2="162.94" y2="196.82" stroke="#141414" stroke-width="1.26" stroke-linecap="round"/>
<line x1="162.94" y1="196.82" x2="162.14" y2="197.40" stroke="#141414" stroke-width="1.26" stroke-linecap="round"/>
<line x1="162.14" y1="197.40" x2="161.40" y2="198.05" stroke="#141414" stroke-width="1.26" stroke-linecap="round"/>
<line x1="161.40" y1="198.05" x2="160.72" y2="198.76" stroke="#141414" stroke-width="1.26" stroke-linecap="round"/>
<line x1="160.72" y1="198.76" x2="160.10" y2="199.53" stroke="#141414" stroke-width="1.26" stroke-linecap="round"/>
<line x1="160.10" y1="199.53" x2="159.56" y2="200.36" stroke="#141414" stroke-width="1.26" stroke-linecap="round"/>
<line x1="159.56" y1="200.36" x2="159.09" y2="201.23" stroke="#141414" stroke-width="1.26" stroke-linecap="round"/>
<line x1="159.09" y1="201.23" x2="158.70" y2="202.13" stroke="#141414" stroke-width="1.26" stroke-linecap="round"/>
<line x1="158.70" y1="202.13" x2="158.40" y2="203.07" stroke="#141414" stroke-width="1.26" stroke-linecap="round"/>
<line x1="158.40" y1="203.07" x2="158.18" y2="204.04" stroke="#141414" stroke-width="1.26" stroke-linecap="round"/>
<line x1="158.18" y1="204.04" x2="158.04" y2="205.01" stroke="#141414" stroke-width="1.26" stroke-linecap="round"/>
<line x1="158.04" y1="205.01" x2="158.00" y2="206.00" stroke="#141414" stroke-width="1.26" stroke-linecap="round"/>
<line x1="158.00" y1="206.00" x2="158.04" y2="206.99" stroke="#141414" stroke-width="1.26" stroke-linecap="round"/>
<line x1="158.04" y1="206.99" x2="158.18" y2="207.96" stroke="#141414" stroke-width="1.26" stroke-linecap="round"/>
<line x1="158.18" y1="207.96" x2="158.40" y2="208.93" stroke="#141414" stroke-width="1.26" stroke-linecap="round"/>
<line x1="158.40" y1="208.93" x2="158.70" y2="209.87" stroke="#141414" stroke-width="1.26" stroke-linecap="round"/>
<line x1="158.70" y1="209.87" x2="159.09" y2="210.77" stroke="#141414" stroke-width="1.26" stroke-linecap="round"/>
<line x1="159.09" y1="210.77" x2="159.56" y2="211.64" stroke="#141414" stroke-width="1.26" stroke-linecap="round"/>
<line x1="159.56" y1="211.64" x2="160.10" y2="212.47" stroke="#141414" stroke-width="1.26" stroke-linecap="round"/>
<line x1="160.10" y1="212.47" x2="160.72" y2="213.24" stroke="#141414" stroke-width="1.26" stroke-linecap="round"/>
<line x1="160.72" y1="213.24" x2="161.40" y2="213.95" stroke="#141414" stroke-width="1.26" stroke-linecap="round"/>
<line x1="161.40" y1="213.95" x2="162.14" y2="214.60" stroke="#141414" stroke-width="1.26" stroke-linecap="round"/>
<line x1="162.14" y1="214.60" x2="162.94" y2="215.18" stroke="#141414" stroke-width="1.26" stroke-linecap="round"/>
<line x1="162.94" y1="215.18" x2="163.79" y2="215.69" stroke="#141414" stroke-width="1.26" stroke-linecap="round"/>
<line x1="163.79" y1="215.69" x2="164.68" y2="216.11" stroke="#141414" stroke-width="1.26" stroke-linecap="round"/>
<line x1="164.68" y1="216.11" x2="165.60" y2="216.46" stroke="#141414" stroke-width="1.26" stroke-linecap="round"/>
<line x1="165.60" y1="216.46" x2="166.55" y2="216.72" stroke="#141414" stroke-width="1.26" stroke-linecap="round"/>
<line x1="166.55" y1="216.72" x2="167.52" y2="216.90" stroke="#141414" stroke-width="1.26" stroke-linecap="round"/>
<line x1="167.52" y1="216.90" x2="168.51" y2="216.99" stroke="#141414" stroke-width="1.26" stroke-linecap="round"/>
<line x1="168.51" y1="216.99" x2="169.49" y2="216.99" stroke="#141414" stroke-width="1.26" stroke-linecap="round"/>
<line x1="169.49" y1="216.99" x2="170.48" y2="216.90" stroke="#141414" stroke-width="1.26" stroke-linecap="round"/>
<line x1="170.48" y1="216.90" x2="171.45" y2="216.72" stroke="#141414" stroke-width="1.26" stroke-linecap="round"/>
<line x1="171.45" y1="216.72" x2="172.40" y2="216.46" stroke="#141414" stroke-width="1.26" stroke-linecap="round"/>
<line x1="172.40" y1="216.46" x2="173.32" y2="216.11" stroke="#141414" stroke-width="1.26" stroke-linecap="round"/>
<line x1="173.32" y1="216.11" x2="174.21" y2="215.69" stroke="#141414" stroke-width="1.26" stroke-linecap="round"/>
<line x1="174.21" y1="215.69" x2="175.06" y2="215.18" stroke="#141414" stroke-width="1.26" stroke-linecap="round"/>
<line x1="175.06" y1="215.18" x2="175.86" y2="214.60" stroke="#141414" stroke-width="1.26" stroke-linecap="round"/>
<line x1="175.86" y1="214.60" x2="176.60" y2="213.95" stroke="#141414" stroke-width="1.26" stroke-linecap="round"/>
<line x1="176.60" y1="213.95" x2="177.28" y2="213.24" stroke="#141414" stroke-width="1.26" stroke-linecap="round"/>
<line x1="177.28" y1="213.24" x2="177.90" y2="212.47" stroke="#141414" stroke-width="1.26" stroke-linecap="round"/>
<line x1="177.90" y1="212.47" x2="178.44" y2="211.64" stroke="#141414" stroke-width="1.26" stroke-linecap="round"/>
<line x1="178.44" y1="211.64" x2="178.91" y2="210.77" stroke="#141414" stroke-width="1.26" stroke-linecap="round"/>
<line x1="178.91" y1="210.77" x2="179.30" y2="209.87" stroke="#141414" stroke-width="1.26" stroke-linecap="round"/>
<line x1="179.30" y1="209.87" x2="179.60" y2="208.93" stroke="#141414" stroke-width="1.26" stroke-linecap="round"/>
<line x1="179.60" y1="208.93" x2="179.82" y2="207.96" stroke="#141414" stroke-width="1.26" stroke-linecap="round"/>
<line x1="179.82" y1="207.96" x2="179.96" y2="206.99" stroke="#141414" stroke-width="1.26" stroke-linecap="round"/>
<line x1="179.96" y1="206.99" x2="180.00" y2="206.00" stroke="#141414" stroke-width="1.26" stroke-linecap="round"/>
<line x1="180.00" y1="206.00" x2="170.00" y2="166.00" stroke="#c8c2b8" stroke-width="0.20" stroke-linecap="round" stroke-dasharray="2 2"/>
<line x1="170.00" y1="166.00" x2="182.00" y2="166.00" stroke="#141414" stroke-width="0.75" stroke-linecap="round"/>
<line x1="182.00" y1="166.00" x2="190.49" y2="174.49" stroke="#141414" stroke-width="0.75" stroke-linecap="round"/>
<line x1="190.49" y1="174.49" x2="190.49" y2="186.49" stroke="#141414" stroke-width="0.75" stroke-linecap="round"/>
<line x1="190.49" y1="186.49" x2="182.00" y2="194.97" stroke="#141414" stroke-width="0.75" stroke-linecap="round"/>
<line x1="182.00" y1="194.97" x2="170.00" y2="194.97" stroke="#141414" stroke-width="0.75" stroke-linecap="round"/>
<line x1="170.00" y1="194.97" x2="161.51" y2="186.49" stroke="#141414" stroke-width="0.75" stroke-linecap="round"/>
<line x1="161.51" y1="186.49" x2="161.51" y2="174.49" stroke="#141414" stroke-width="0.75" stroke-linecap="round"/>
<line x1="161.51" y1="174.49" x2="170.00" y2="166.00" stroke="#141414" stroke-width="0.75" stroke-linecap="round"/>
<line x1="170.00" y1="166.00" x2="35.00" y2="270.00" stroke="#c8c2b8" stroke-width="0.20" stroke-linecap="round" stroke-dasharray="2 2"/>
</svg>
