<?xml version="1.0" encoding="UTF-8"?><svg id="a" xmlns="http://www.w3.org/2000/svg" viewBox="0 0 1895.08 1868.74"><defs><style>.b{fill:#3b6c97;}.c{fill:#fefefe;}.d{fill:#183044;}.e{fill:#f1be2e;}.f{fill:#facb3a;}.g{fill:#4980b2;}</style></defs><polygon class="b" points="1160.22 1653.48 1201.31 1653.22 1149.68 1809.23 1105.32 1809.4 1073.58 1714.85 1042.67 1809.17 998.45 1809.24 947 1653.26 989.59 1652.99 1021.69 1755.37 1055.02 1653.17 1093.39 1653.18 1127.28 1756.49 1160.22 1653.48"/><path class="b" d="M554.26,1811.65c-31.03-1.2-56.75-19.98-66.65-48.73-7.68-22.29-7.03-46.24,1.86-67.87,12.82-29.65,41.56-46.59,73.73-44.06,14.43,1.13,27.3,6.02,37.94,17.14l.51-73.67,44.51-.13.02,214.91-42.55-.08-.6-16.28c-12.47,13.45-29.73,19.51-48.77,18.78ZM598.46,1749.66c6.32-16.23,4.83-35.87-7.09-49.45-14.72-16.77-43.01-15.26-55.79,3.01-9.8,14.02-10.44,32.23-4.17,47.6,5.87,14.39,19.65,22.7,34.5,22.17s27.05-9.22,32.55-23.33Z"/><path class="b" d="M184.3,1792.86l-.08,73.74-44.55.12-.06-213.58,42.98-.15.71,17.49c6.85-7.68,14.53-13.19,24.27-16.3,35-11.18,73.73,4.27,88.93,38.79,14.55,33.02,9.97,76.32-17.37,101.02-27.93,22.27-69.1,25.13-94.84-1.13ZM252.91,1755.92c8.69-15.59,8.51-35.33-.47-50.56-6.83-11.58-18.6-17.11-31.65-16.74-15.57.44-28.35,9.34-33.75,24-7.65,20.77-1.2,47.39,18.92,56.66,17.18,7.91,37.76,3.13,46.95-13.36Z"/><path class="b" d="M407.06,1830.8c-5.32,12.95-13.39,23.91-25.58,30.36-23.06,12.2-51.98,9.36-72.61-6.21l16.14-33.36c6.76,4.58,12.74,7.49,19.94,8.79,14.28,2.54,24.34-7.56,27.85-21.62l-64.58-155.55h46.04s41.05,102.15,41.05,102.15l39.71-102.13,43.68-.05-45.05,112.95-26.59,64.69Z"/><path class="b" d="M815.33,1805.24c-17-7.78-25.48-23.45-25.6-41.33-.22-33.08,27.94-47.39,58.83-47.58l40.07-.25c.8-10.46-4.58-22.16-15.51-25.73-20.67-6.76-43.27-1.8-60.33,11.42l-16.37-31c10.04-7.79,20.88-12.61,32.84-16.01,29.02-7.27,65.59-6.47,87.45,14.49,10.63,10.19,16.25,24.66,16.32,39.76l.47,99.88-41.59.11-.67-16.98c-17.03,21.57-50.74,24.75-75.91,13.24ZM886.19,1764.29c3.73-6.95,2.97-14.4,2.88-21.29l-34.87.4c-5.91.07-12.06,1.71-16.34,5.89-4.88,4.78-5.77,11.83-3.37,18.71,1.63,4.65,6.16,9.18,12.45,11.01,14.5,4.22,31.7-.66,39.23-14.71Z"/><path class="b" d="M728.47,1809.18h-44.94s-.08-156.07-.08-156.07l42.07-.07.49,19.88c13.25-16.94,30.69-22.63,52.11-21.78l.02,42.29c-8.84-.89-17.74-1.64-26.33,1.48-13.8,5.02-21.8,17.82-23.19,32.55l-.14,81.71Z"/><path class="e" d="M1215.04,1607.35h643.31v244.74h-643.31v-244.74ZM1280.48,1749.23c-5.86-14.55-4.18-31.2,3.51-44.31,5.81-9.9,15.98-16.36,27.19-16.42,15.92-1.79,29.55,6.13,36.62,21.03l34.15-20.97c-6.04-11.16-14.49-19.96-24.84-26.9-15.96-9.27-33.83-12.09-52.16-10.07-46.51,5.13-75.98,42.82-70.38,90.1,4.19,35.31,30.88,62.98,66.09,68.16,18,2.65,35.61.75,51.72-7.18,13.19-7.37,23.93-17.63,30.23-31.68l-34-18.41c-7.16,13.64-20.64,21.51-35.46,20.78-14.1-.69-26.78-9.48-32.69-24.14ZM1555.08,1731.09c0-44.7-36.24-80.94-80.94-80.94s-80.94,36.24-80.94,80.94,36.24,80.94,80.94,80.94,80.94-36.24,80.94-80.94ZM1625.01,1808.19l1-86.1c.18-15.19,13.25-25.55,26.71-28.42l20.91-.44.06-41.94c-18.83-1.24-37.6,5.23-50.36,20.25l-.45-18.27-42.11.1.03,155.23,44.21-.41ZM1806.45,1760.15c-18.81,17.85-47.32,19.36-66.47,3.39-6.01-5.02-9.31-12.22-11.39-19.81l111.68-.1-.13-26.23c-4.17-38.81-35.78-66.62-74.85-66.48-29.92.1-58.03,15.36-71.37,42.43-14.42,29.24-10.15,67.58,12.13,92.39,16.56,18.43,40.51,25.79,65.2,25.34,23.09-.42,44.44-7.94,59.64-25.66l-10.3-10.92-14.16-14.35Z"/><path class="c" d="M1806.45,1760.15l14.16,14.35,10.3,10.92c-15.2,17.72-36.56,25.24-59.64,25.66-24.69.45-48.64-6.91-65.2-25.34-22.28-24.8-26.55-63.15-12.13-92.39,13.35-27.07,41.45-42.32,71.37-42.43,39.07-.13,70.69,27.67,74.85,66.48l.13,26.23-111.68.1c2.07,7.59,5.37,14.8,11.39,19.81,19.15,15.97,47.66,14.46,66.47-3.39ZM1800.03,1716.66c-1.71-14.09-9.89-24.54-21.85-29.09-10.06-3.28-20.81-3.73-30.34,1.15-10.71,5.49-17.33,16.15-19.2,28.11l71.39-.17Z"/><path class="c" d="M1555.08,1731.09c0,44.7-36.24,80.94-80.94,80.94s-80.94-36.24-80.94-80.94,36.24-80.94,80.94-80.94,80.94,36.24,80.94,80.94ZM1495.24,1766.4c11.6-9.19,15.24-21.89,15.29-35.45.05-11.54-2.41-21.61-9.86-30.77-13.08-16.09-41.82-16.55-54.98,1.98-10.61,14.94-11.41,35.99-2.9,52.44,10.03,19.37,35.45,25.26,52.45,11.8Z"/><path class="c" d="M1280.48,1749.23c5.9,14.66,18.58,23.44,32.69,24.14,14.82.73,28.3-7.14,35.46-20.78l34,18.41c-6.3,14.05-17.04,24.31-30.23,31.68-16.11,7.93-33.72,9.83-51.72,7.18-35.21-5.18-61.9-32.86-66.09-68.16-5.61-47.28,23.87-84.97,70.38-90.1,18.32-2.02,36.2.79,52.16,10.07,10.34,6.94,18.79,15.74,24.84,26.9l-34.15,20.97c-7.07-14.9-20.7-22.82-36.62-21.03-11.21.06-21.38,6.52-27.19,16.42-7.69,13.1-9.37,29.75-3.51,44.31Z"/><path class="c" d="M1625.01,1808.19l-44.21.41-.03-155.23,42.11-.1.45,18.27c12.76-15.03,31.53-21.49,50.36-20.25l-.06,41.94-20.91.44c-13.46,2.87-26.53,13.22-26.71,28.42l-1,86.1Z"/><path class="e" d="M1800.03,1716.66l-71.39.17c1.87-11.97,8.48-22.62,19.2-28.11,9.53-4.88,20.28-4.43,30.34-1.15,11.96,4.55,20.14,15,21.85,29.09Z"/><path class="e" d="M1495.24,1766.4c-17,13.46-42.42,7.58-52.45-11.8-8.51-16.45-7.71-37.49,2.9-52.44,13.16-18.53,41.9-18.07,54.98-1.98,7.45,9.16,9.9,19.23,9.86,30.77-.05,13.56-3.69,26.26-15.29,35.45Z"/><path class="g" d="M704.05,110.41l-.03,59.26-231.46.66c-38.38.04-72.9,11.2-101.78,36.53-31.4,27.54-53.12,66.5-53.23,109.71l-.72,282.81c-.05,21.58-2.57,40.67-10.18,60.51-20.58,53.66-61.94,92.75-111.67,120.57l-85.89,48.03c-31.36,17.53-54.38,37.23-72.2,68.05-13.89-80.65-7.55-164.9,20.3-242.66,19.29-53.86,56.29-95.4,115.98-95.38l77.61.02c4.15,0,7.5-3.28,7.51-7.7l.16-230.1c.08-114.73,94.66-210.95,211-210.91l234.6.59Z"/><path class="b" d="M704.02,169.67l.4,60.73-244.36.54c-50.35.11-84.81,46.37-84.77,94.47l.27,406.86c-101,27.92-168.42,122.42-172.97,227.43l-.24,115.1c-43.51,2.44-76.01-.16-107.38-33.85-33.68-36.16-49.84-96.53-58.09-144.41,17.83-30.82,40.85-50.52,72.2-68.05l85.89-48.03c49.74-27.81,91.09-66.91,111.67-120.57,7.61-19.84,10.12-38.93,10.18-60.51l.72-282.81c.11-43.22,21.83-82.17,53.23-109.71,28.88-25.33,63.4-36.49,101.78-36.53l231.46-.66Z"/><path class="d" d="M704.05,110.41l-234.6-.59c-116.34-.05-210.92,96.17-211,210.91l-.16,230.1c0,4.42-3.35,7.7-7.51,7.7l-77.61-.02c-59.69-.02-96.69,41.52-115.98,95.38-27.85,77.75-34.19,162.01-20.3,242.66,8.24,47.87,24.41,108.24,58.09,144.41,31.37,33.69,63.88,36.29,107.38,33.85l.38,30.7-36.17-.57c-45.15-2.11-85.26-25.23-109.95-63.1-13.6-20.86-24.03-42.24-31.79-66.52-33.9-105.95-33.01-221.12,2.27-326.57,8.32-24.86,19.39-46.22,35.11-66.59,23.65-29.84,57.35-50.24,95.76-53.06l70.39-.65.24-209.27c.11-94.92,57.17-180.37,143.51-218.66,32.02-14.2,65.03-20.45,100.35-20.44l235.08.04c-2.18,11.3-3.47,20.68-3.48,30.31Z"/><path class="d" d="M1519.78,949.23l-.17,329.68c-.01,28.78-8.02,55.49-29.67,75.36-13.18,12.1-32.51,25.33-52.58,25.33l-977.68.06c-21.24,0-39.82-13.2-53.65-25.93-11.95-11-18.61-23.74-24.64-38.2-4.54-10.9-5.62-22.11-5.62-33.3l-.03-486.27v-3.05c-.02-1.2-.92-2.18-2.29-1.61-.62.26-1.09.62-1.09,1.5-16.94,6.16-31.88,17.7-45.26,29.14-45,38.47-68.73,93.41-68.75,153.45l-.12,297.37c-.02,48.97,11.6,95.48,39.92,135.56,20.5,29,46.98,52.54,78.85,69.07,25.15,13.04,53.69,22.84,83.32,22.85l960.89.53c56.38.03,109.28-21.3,149.15-60.25,26.32-25.71,45.07-55.39,56.19-90.63,8.8-27.87,10.44-55.33,10.41-84.96l-.23-191.29c0-5.69,4.29-8.95,9.29-8.95l77.73-.03c37.45-.01,69.62-18.26,90.51-49.13,33.13-48.94,50.52-128.24,50.5-186.86v-34.1s-4.61-50.16-4.61-50.16l-8.39-48.33c-4.41-25.41-13.57-48.76-24.4-72.05-9.07-19.5-20.44-36.61-36.68-50.83-13.02-11.39-28.95-20.84-46.57-21.86l-17.36-1.01-33.77-.41.12-30.8h33.89c61.11.02,105.21,40.19,129.56,94.17,13.06,28.96,21.08,58.09,27.45,89.49,16.71,82.43,14.72,166.37-7.47,247.47-12.58,45.99-34.25,90.36-72.27,119.43-23.29,16.58-50.12,25.41-78.92,25.57l-58.02.31-.31,191.31c-.1,62.82-24.03,121.92-67.66,167.32-41.98,43.68-100.45,75.85-162.68,75.97l-582.41,1.04-389.55-.53c-56.94-.08-109.91-23.75-152-60.89-52.19-46.04-83.98-112.51-84.02-182.98l-.2-314.6c-.06-94.89,58.4-181.37,147.08-213.05v-26.88s-.28-406.86-.28-406.86c-.03-48.1,34.42-94.36,84.77-94.47l244.36-.54,234.42-.05,78.8-.14c16.7-15.37,35.14-26.54,55.29-36.72l26.84-13.56c23.67-11.96,35.78-35.61,37.16-61.84,1.43-27.23-12.55-50.27-37.64-61.64-24.64-11.17-50.32-18.07-77.73-21.71-70.15-9.33-167.86-7.3-231.19,24.21-16.95,8.43-29.92,25.78-29.99,45l-.12,100.79-30.2-.41.32-101.67c.09-28.89,17.5-53.29,42.17-67.84,21.66-12.77,44.76-20.26,70.09-24.99,66.89-12.47,135.23-13.16,202.34-1.54,29.3,5.07,56.64,13.95,81.27,29.18,20.9,12.93,34.41,32.62,38.49,56.6,9.29,54.56-18.59,102.01-69.46,121.66-25.14,9.71-46.58,24.9-65.03,44.02l-569.56.99c-31.12.05-54.8,31.12-54.86,59.83l-.34,164.98,82.4.03c6.92,0,10.19,5.73,10.5,12.74l110.23.3c-11.62-17.91-16.68-35.51-17.47-56.51-2.19-58.52,42.36-111.03,102.86-111.16l295.51-.62-5.98,22.5-65.85.19.15,74.38,40.93.18-.12,22.13-73.18.41c-11.08.06-20.02,9.29-20.02,20.69l.02,304.56c0,12.75,8.83,22.57,21.42,22.62l73.54.26-.25-57.74c-19.88-4.55-40.59-12.81-40.54-31.78l.23-91.92c.04-15.66,22.72-25.96,40.77-29.66l.35-91.56c.03-7.13,8.17-10.11,14.84-9.01l.67-47.14c.16-10.94,11.81-16.97,23.02-15.69-1.09-33.07,2.07-64.41,14.34-94.52,16.7-42.45,48.72-74.88,91.17-90.81,64.85-24.33,99.61-91.36,82.58-158.52l244.77.61c129.37,2.34,234.42,107.75,234.25,237.6l-.52,397.86c-1.52,92.5-61.9,173.13-145.82,206.61l-.51,26.7ZM1211.01,170.62c-7.49,22.21-21.18,41.67-38.04,59.29l264.17.93c45.32.16,82.17,41.67,82.23,86.84l.52,368.97c.04,30.94-13.23,58.8-35.26,78.65-2.61,2.36-5.36,3.03-5.56,6.15-22.46,13.81-47.86,18.44-74.71,17.91-32.44-.65-63.46,2.51-94.75,10.09-42,10.17-81.38,35.21-103.65,72.55l-43.02,72.12c-12.52,20.98-28.24,39.53-8.63,63.08,13.74,16.5,35.76,21.1,56.65,14.46l69.63-22.13c37.94-12.06,66.79-23.13,87.92-58.54,12.73-21.33,34.19-32.56,59.27-32.36,46.86.37,91.99-12.53,129.48-40.86,50.09-37.85,79.7-97.39,79.66-160.73l-.24-389.39c-.07-108.74-90.47-203.02-197.98-206.81l-217.78-1.1c.69,22.36-3.38,41.54-9.89,60.87ZM1405.59,498.17l84.37.27-.51-179.23c-.08-28.33-23.12-58.2-52.8-58.29l-303.28-.94c-39.15,9.27-71.86,34.61-88.8,70.35l279.77.89c29.31.09,56.84,18.08,74.33,39.87,15.05,18.75,21.64,41,23.29,64.37,1.57,22.4-5.86,43.11-16.36,62.72ZM711.38,367.89l-.12-19.59c-15.88-.71-30.35.41-45.58,6.37l12.38,17.97c10.96-4.19,21.23-4.63,33.32-4.75ZM773.45,348.23l-44.19.02v19.97s44.2-.02,44.2-.02v-19.97ZM791.46,348.22v19.92h43.46v-19.92h-43.46ZM895.78,348.16l-42.81.07.03,19.93,42.81-.07-.03-19.93ZM1167.56,348.09l-38.08.09.05,20.04,38.08-.09-.05-20.04ZM1228.58,348.13l-42.92.04.02,20,42.92-.04-.02-20ZM1246.39,348.16l-.03,20.01,42.91.06.03-20.01-42.91-.06ZM1337.96,373.83l11.94-18.36c-13.83-6.09-27.51-7.97-42.6-7.13l.03,19.65c10.66.45,20.11,1.44,30.62,5.85ZM1119.58,675.87c-5.99-.57-8.99-.48-13.14.2l-.28,35.68c-.05,6.04-4.16,10.67-8.43,14.62-9.41,6.94-19.94,10.8-32.04,13.57v58.37s73.74-.31,73.74-.31c10.65-.04,21.32-8,21.33-19.42l.37-306.5c.01-12.15-8.57-21.6-20.43-21.7l-73.73-.65.27-21.94,41.52-.27-.41-74.38-72.99-.13c-7.27,23.69-9.19,46.82-7.29,70.27,12.68-.08,20.87,7.82,21.78,19.44l.75,43.14c6.47,1.15,14.87,2.83,14.88,11.25l.12,90.01c18.93,4.27,40.67,13.65,40.76,31.18l.18,35.41,12.93.11.75-18.95c.23-5.82,5.71-7.7,10.61-7.58,4.19.11,9.75,2.65,9.77,8.45l.16,60.45c.01,5.67-5.84,8.67-10.06,8.85-4.93.22-10.49-2.38-10.62-8.14l-.5-21.04ZM661.19,380.91l-11.24-17.73c-12.73,8.43-22.83,18.77-29.86,32.16l20.55,8.35c5.51-9.16,12.34-15.63,20.55-22.77ZM1372.26,404.13l21.61-7.74c-5.93-13.4-16.01-23.93-28.43-32.6l-11.44,18.69c7.58,6.43,12.96,12.69,18.26,21.65ZM843.33,464.7c5.02-24.54,27.3-39.29,52.08-37.32l-.09-41.29-195.14.12c-26.41,1.55-44.78,18.66-49.78,44.83-5.38,28.17,16.63,59.82,47,59.89l145.06.35.87-26.57ZM1184.58,491.2l130.87-.61c28.89-.13,48.23-26.53,47.53-53.78-.68-26.36-22.29-50.2-50.87-50.27l-181.35-.43.44,41.39c24.37-2.36,46.32,11.64,51.72,35.04l1.66,28.66ZM632.85,454.43c-2.44-12.65-1.48-22.75,1.13-34.35l-20.62-7.98c-5.01,16.14-4.83,32.79-1.28,49.87l20.77-7.53ZM1401.78,462.04c3.94-17.9,3.3-33.26-1.4-48.96l-20.95,7.41c2.58,11.31,2.91,21.4.68,33.22l21.66,8.32ZM1027.03,445.95l-28.05.07.1,40.74,28.05-.07-.1-40.74ZM1382.78,497.75c5.85-4.57,9.37-13.17,12.43-19.05l-21.44-8.26c-5.76,11.45-12.66,20.53-22.63,27.85,10.64-.11,21.07,1.91,31.65-.54ZM663.09,498.07c-10.68-6.82-18.02-15.49-23.65-26.92l-21.41,8.1c3.2,7.64,7,13.31,11.81,19.24l33.25-.42ZM405.41,507.7l-.09,204.36,70.82.03.09-204.36-70.82-.03ZM1016.99,524.36l25.44-.03.38-15.77-58.67-.02.1,126.15,25.08,1.15.03-104.69c.69-3.85,3.05-6.78,7.63-6.79ZM842.48,519.7l-344.49.02v20.68s344.49-.02,344.49-.02v-20.68ZM1183.83,519.75v20.61s305.97.01,305.97.01v-20.61s-305.97-.01-305.97-.01ZM1042.69,536.11h-22.39s.03,99.73.03,99.73h22.39s-.03-99.73-.03-99.73ZM582.71,583.96l259.74-.41-.05-25.39h-344.12s-.15,14.3-.15,14.3l31.91-.08c6.74-.02,9.54,5.4,10.3,11.11l42.37.47ZM1183.74,558.07v25.78h306.05v-25.78h-306.05ZM519.37,592.72l-21.68.02.03,35.06,21.68-.02-.03-35.06ZM842.82,601.62h-302.83s0,16.74,0,16.74h302.83s0-16.74,0-16.74ZM1489.79,601.65h-306.03s0,16.73,0,16.73h306.03s0-16.73,0-16.73ZM960,628.16v-19.75c-7.28,2.26-14.19,4.94-18.93,11.34,5.6,5.11,12.11,7.76,18.93,8.41ZM1084.65,618.28c-6.97-5.73-11.77-7.63-19.25-9.75l.09,20.69c7.73-2.77,15.06-4.46,19.16-10.95ZM499.41,660.94h342.54s-.07-25.18-.07-25.18l-302.8.07c.15,4.5-.25,7.15-1.74,9.24-1.36,1.92-4.18,2.76-7.26,2.81l-31.82.51c-.52,4.62-1.8,9.3,1.14,12.55ZM1489.71,635.63l-305.99.04v25.37s305.99-.04,305.99-.04v-25.37ZM1084.56,709.11l.15-64.87c-22.55,9.73-45.66,12.39-69.99,12.68-25.4.31-49.43-2.39-73.67-12.62l.21,65.61c9.87,6.52,20.18,8.88,31.32,11.75,31.9,5.59,64.58,4.76,95.64-4.35,6-1.76,11.46-3.74,16.34-8.2ZM498.05,678.78v21.01s344.59.05,344.59.05v-21.01s-344.59-.05-344.59-.05ZM1489.86,678.82h-306.1v21.08h306.1v-21.08ZM405.51,971.37l140.33-138.57.19-111.28-47.71.25c.44,5.79-1.8,10.71-7.35,12.2l-85.54.11.08,237.28ZM587.4,837.2l-.03-115.56-20.68-.18-.27,114.53,20.97,1.21ZM605.56,830.32c-.38,2.16,1.39,1.45,1.46.07l25.55-25.6.06-83.16-26.53.28-.54,108.41ZM716.18,722.22l-64.74-.52.17,64.06,64.57-63.54ZM405.9,1117.02l349.55-361.7.32-33.64h-15.25s-111.47,112.67-111.47,112.67l-223.32,225.35.17,57.33ZM1441.13,755.08c17.22-4.71,30.92-15.14,39.78-31.08.73-1.31.15-3.01-2.12-2.41l-294.7-.12-.55,58.27c-.13,13.81-8.7,25.02-18.97,33.76-8.42,5.32-18,7.68-28.33,7.7l-70.52.14-.37,170.25-28.11,102.72c-1.89,6.91-5.1,11.34-13.84,11.26l-.56,22.79c-.12,4.7-4.46,10.04-10.21,10.04l-349.21.45-97.96,131.71c-2.89,3.89-8.61,3.12-11.31.81-2.29-1.95-4.08-6.62-1.31-10.32l192.65-257.56,79.06.02c13.96,0,27.15,2.68,39.2,8.8,11.94,6.64,21.6,16.06,25.27,29.26,7.41,39.58-27.19,66.49-63.64,82.74l177.66.18c.56-6.88.84-12.75-.22-19.36-5.79.64-11.77-1.15-13.26-6.6l-28.78-105.38-.36-171.82-78.27-.65c-22.83-1.7-38.83-23.32-39.85-45.13l-.09-54.13-68.81.21.4,95.69c.02,5.06-5.15,9.15-8.81,13.02l-315.99,334.7-43.31,45.97.28,73.05c.12,32.24,26.83,65.39,61.97,65.4l960.95.25c32.86,0,60.65-30.89,60.66-66.22l.1-351.26c-25.66,6.03-49.53,6.7-74.2,7.91-9.18.45-15.66,9.34-21.02,15.75-8.16,11.07-14.55,22.23-25.05,31.29-21.21,18.3-46.32,30.33-73.21,38.77l-79.45,24.93c-21.55,6.76-43.07,4.72-62.74-5.92l-15.98,17.64-8.54,19.6c-10.31,23.65-37.56,47.43-43.55,40.65-1.8-2.04-1.61-5.33.5-7.35,11.6-11.11,19.99-24.48,23.89-41.21-18.22,6.11-43.83,4.94-42.62-4.69.29-2.31,2.63-4.09,5.64-4.5,24.77-3.39,46.29-15.85,60.76-37.1-17.24-17.14-23.39-40.18-15.71-63.01,4.02-11.95,10.39-22.04,16.93-32.85l37.55-62.05c13-25.04,29.75-46.1,52.49-62.96,19.3-14.31,39.64-24.79,62.84-32.13,72.24-22.89,122.69-11.63,152.93-19.89ZM1020.54,746.86l.07,164.24c0,3.87-2.36,6.32-5.16,6.34s-5.82-2.47-5.82-6.3l-.22-164.41-25.36-1.59-.02,235h58.6s-.22-235.25-.22-235.25l-21.87,1.95ZM468.68,1118.54l226.84-240.96,55.97-59.54c2.48-2.63,4.02-6.07,4.03-9.62l.12-28.15-245.4,254.48-104.58,109.26.27,40.35,62.75-65.82ZM406.09,1033.77l83.42-83.51,92.41-93.35-29.6-5.22-17.48,19.5-128.97,129.68c-.66,11.04-1.39,21.03.22,32.9ZM1019.31,1075.82l19.78-72.87-51.97.06,19.41,72.44c4.03,1.27,8.01,1.05,12.79.38ZM870.9,1066.03c6.68-16.75,1.02-32.8-14.65-40.1-8.69-4.17-18.47-6.98-28.61-7.02l-74.17-.32-77.95,104.6,77.04-.37c40.6-1.47,103.02-18.37,118.34-56.79Z"/><path class="b" d="M938.84,230.35l-.62-25.36-177.95-.26.12-100.79c.07-19.21,13.04-36.56,29.99-45,63.33-31.51,161.04-33.53,231.19-24.21,27.41,3.64,53.09,10.55,77.73,21.71,25.09,11.37,39.07,34.42,37.64,61.64-1.38,26.23-13.49,49.88-37.16,61.84l-26.84,13.56c-20.15,10.18-38.59,21.36-55.29,36.72l-78.8.14ZM865.92,117.78c0-17.64-14.3-31.94-31.94-31.94s-31.94,14.3-31.94,31.94,14.3,31.94,31.94,31.94,31.94-14.3,31.94-31.94Z"/><circle class="d" cx="901.2" cy="486.64" r="17.03"/><circle class="d" cx="901.6" cy="762.37" r="16.97"/><path class="f" d="M1479.06,771.46l7.41-2.38c20.1-10.83,38.89-23.7,53.79-41.32,21.05-24.88,33.83-55.04,37.27-87.46l-.14-319.56c-.01-31.22-10.82-60.54-27.79-85.94-17.86-26.73-42.57-45.04-72.98-55.18-11.59-3.86-23.84-8.37-36.91-8.41l-228.72-.59c6.52-19.34,10.58-38.51,9.89-60.87l217.78,1.1c107.52,3.79,197.92,98.07,197.98,206.81l.24,389.39c.04,63.34-29.57,122.88-79.66,160.73-37.48,28.32-82.62,41.23-129.48,40.86-25.07-.2-46.53,11.03-59.27,32.36-21.13,35.4-49.99,46.48-87.92,58.54l-69.63,22.13c-20.9,6.64-42.92,2.04-56.65-14.46-19.61-23.56-3.89-42.1,8.63-63.08l43.02-72.12c22.27-37.34,61.66-62.37,103.65-72.55,31.29-7.58,62.32-10.73,94.75-10.09,26.85.53,52.25-4.1,74.71-17.91ZM1289.15,920.19c-6.92-7.62-15.07-12.65-24.54-9.72-7.69,2.38-15.8,7.01-19.46,14.31-5.97,11.9-1.46,26.6,8.62,33.34,10.72,7.16,25.5,5.97,34.16-3.41,8.44-9.14,10.14-24.71,1.22-34.53Z"/><path class="b" d="M1479.06,771.46c.2-3.12,2.95-3.79,5.56-6.15,22.03-19.85,35.3-47.71,35.26-78.65l-.52-368.97c-.06-45.17-36.91-86.68-82.23-86.84l-264.17-.93c16.86-17.62,30.56-37.08,38.04-59.29l228.72.59c13.07.04,25.32,4.54,36.91,8.41,30.41,10.13,55.12,28.45,72.98,55.18,16.97,25.4,27.77,54.72,27.79,85.94l.14,319.56c-3.44,32.41-16.22,62.58-37.27,87.46-14.9,17.61-33.69,30.49-53.79,41.32l-7.41,2.38Z"/><polygon class="c" points="405.9 1117.02 405.73 1059.7 629.05 834.35 740.52 721.69 755.77 721.68 755.45 755.32 405.9 1117.02"/><path class="c" d="M468.68,1118.54l-62.75,65.82-.27-40.35,104.58-109.26,245.4-254.48-.12,28.15c-.01,3.55-1.56,6.99-4.03,9.62l-55.97,59.54-226.84,240.96Z"/><path class="c" d="M405.41,507.7l70.82.03-.09,204.36-70.82-.03.09-204.36ZM458.37,544.66c0-8.9-7.21-16.11-16.11-16.11s-16.11,7.21-16.11,16.11,7.21,16.11,16.11,16.11,16.11-7.21,16.11-16.11ZM458.63,676.19c0-8.9-7.22-16.12-16.12-16.12s-16.12,7.22-16.12,16.12,7.22,16.12,16.12,16.12,16.12-7.22,16.12-16.12Z"/><path class="c" d="M1020.54,746.86l21.87-1.95.22,235.25h-58.6s.02-235,.02-235l25.36,1.59.22,164.41c0,3.82,3.01,6.32,5.82,6.3s5.16-2.48,5.16-6.34l-.07-164.24Z"/><path class="c" d="M1084.56,709.11c-4.88,4.46-10.34,6.44-16.34,8.2-31.07,9.11-63.75,9.93-95.64,4.35-11.14-2.87-21.45-5.23-31.32-11.75l-.21-65.61c24.24,10.23,48.27,12.93,73.67,12.62,24.34-.29,47.44-2.96,69.99-12.68l-.15,64.87ZM1069.38,700.02l-.4-34.5c-1.34-2.2-8.56-1.92-9.54.35l-.5,33.12c-.05,3.4,3.07,4.9,4.98,5.28,2.05.41,5.51-.5,5.46-4.25Z"/><path class="c" d="M582.71,583.96l-42.37-.47c-.76-5.71-3.55-11.13-10.3-11.11l-31.91.08.15-14.31h344.12s.05,25.4.05,25.4l-259.74.41Z"/><rect class="c" x="1183.74" y="558.07" width="306.05" height="25.78"/><path class="c" d="M499.41,660.94c-2.94-3.25-1.65-7.92-1.14-12.55l31.82-.51c3.08-.05,5.89-.89,7.26-2.81,1.48-2.09,1.89-4.74,1.74-9.24l302.8-.07.07,25.17h-342.54Z"/><rect class="c" x="1183.72" y="635.66" width="305.99" height="25.37"/><rect class="c" x="659.84" y="517.02" width="21.01" height="344.59" transform="translate(-19.0617 1359.5614) rotate(-89.9924)"/><rect class="c" x="497.98" y="519.71" width="344.49" height="20.68"/><rect class="c" x="1326.51" y="377.07" width="20.61" height="305.97" transform="translate(806.6985 1866.8518) rotate(-89.9976)"/><rect class="c" x="1183.77" y="678.82" width="306.1" height="21.08"/><path class="c" d="M406.09,1033.77c-1.61-11.87-.88-21.86-.22-32.9l128.97-129.68,17.48-19.5,29.6,5.22-92.41,93.35-83.42,83.51Z"/><rect class="c" x="1183.75" y="601.65" width="306.03" height="16.71"/><rect class="c" x="539.99" y="601.63" width="302.83" height="16.73"/><path class="c" d="M1016.99,524.36c-4.58,0-6.94,2.94-7.63,6.79l-.03,104.69-25.08-1.15-.1-126.15,58.67.02-.38,15.77-25.44.03Z"/><path class="c" d="M607.02,830.38c-.72-.28-1.18-.16-1.46-.07l.54-108.41,26.53-.28-.06,83.16-25.55,25.6Z"/><polygon class="c" points="587.4 837.2 566.43 836 566.7 721.46 587.38 721.64 587.4 837.2"/><path class="c" d="M1019.31,1075.82c-4.78.67-8.75.89-12.79-.38l-19.41-72.44,51.97-.06-19.78,72.87Z"/><rect class="c" x="1020.31" y="536.11" width="22.39" height="99.72"/><rect class="c" x="999.03" y="445.99" width="28.05" height="40.74" transform="translate(-1.13 2.46)"/><path class="c" d="M1401.78,462.04l-21.66-8.32c2.23-11.82,1.9-21.91-.68-33.22l20.95-7.41c4.7,15.7,5.34,31.06,1.4,48.96Z"/><path class="c" d="M632.85,454.43l-20.77,7.53c-3.55-17.08-3.73-33.73,1.28-49.87l20.62,7.98c-2.61,11.6-3.57,21.7-1.13,34.35Z"/><path class="c" d="M1372.26,404.13c-5.3-8.96-10.68-15.22-18.26-21.65l11.44-18.69c12.42,8.67,22.5,19.2,28.43,32.6l-21.61,7.74Z"/><path class="c" d="M661.19,380.91c-8.22,7.15-15.04,13.61-20.55,22.77l-20.55-8.35c7.03-13.39,17.13-23.72,29.86-32.16l11.24,17.73Z"/><rect class="c" x="852.98" y="348.19" width="42.81" height="19.93" transform="translate(-.56 1.38)"/><rect class="c" x="729.26" y="348.24" width="44.19" height="19.97"/><rect class="c" x="791.46" y="348.22" width="43.46" height="19.92"/><path class="c" d="M711.38,367.89c-12.1.11-22.36.56-33.32,4.75l-12.38-17.97c15.23-5.95,29.7-7.07,45.58-6.37l.12,19.59Z"/><rect class="c" x="1185.67" y="348.15" width="42.92" height="20"/><rect class="c" x="1257.83" y="336.74" width="20.01" height="42.91" transform="translate(907.8765 1625.5254) rotate(-89.9204)"/><path class="c" d="M1337.96,373.83c-10.51-4.4-19.96-5.4-30.62-5.85l-.03-19.65c15.09-.84,28.77,1.04,42.6,7.13l-11.94,18.36Z"/><rect class="c" x="497.7" y="592.73" width="21.68" height="35.06"/><rect class="c" x="1129.51" y="348.13" width="38.08" height="20.04" transform="translate(-.8 2.58)"/><path class="c" d="M1382.78,497.75c-10.58,2.45-21.01.43-31.65.54,9.98-7.31,16.87-16.4,22.63-27.85l21.44,8.26c-3.06,5.88-6.57,14.48-12.43,19.05Z"/><path class="c" d="M663.09,498.07l-33.25.42c-4.81-5.93-8.62-11.61-11.81-19.24l21.41-8.1c5.63,11.43,12.98,20.11,23.65,26.92Z"/><path class="c" d="M1084.65,618.28c-4.1,6.49-11.43,8.18-19.16,10.95l-.09-20.69c7.49,2.12,12.28,4.02,19.25,9.75Z"/><path class="c" d="M960,628.16c-6.83-.65-13.33-3.31-18.93-8.41,4.75-6.4,11.65-9.08,18.95-11.34v19.75Z"/><path class="e" d="M375.72,792.9l-3.36-.11c0-.87.47-1.24,1.09-1.5,1.37-.57,2.27.41,2.27,1.61Z"/><path class="b" d="M605.56,830.32c.28-.1.74-.22,1.46.07-.07,1.39-1.84,2.09-1.46-.07Z"/><circle class="c" cx="833.98" cy="117.78" r="31.94"/><path class="d" d="M1330.56,1248.36c-32.94,16.54-68.35,26.31-105.64,26.35l-513.15.58c-4.19,0-5.68-4.29-5.92-6.43-.3-2.67.84-8.08,5.49-8.08l359.08.03,124.66-186.04,103.12-.3c21.14.97,40.98,3.56,59.83,12.34,24.24,10.98,41.63,32.16,43.73,58.94,3.44,43.94-31.67,82.75-71.21,102.6ZM1384.43,1165.52c6.47-24.75-4.27-48.88-26.62-61.4-14.65-8.39-31.05-13.62-48.62-13.7l-105.81-.48-114.29,170.65,123.51-.33c29.66-.92,57.41-4.87,85.15-14.47,37.81-13.01,76.44-41.09,86.68-80.26Z"/><path class="d" d="M1289.15,920.19c8.92,9.81,7.22,25.38-1.22,34.53-8.66,9.38-23.43,10.57-34.16,3.41-10.09-6.74-14.59-21.44-8.62-33.34,3.66-7.3,11.78-11.93,19.46-14.31,9.47-2.93,17.61,2.1,24.54,9.72Z"/><circle class="d" cx="1124.66" cy="486.86" r="17.08"/><circle class="d" cx="1124.56" cy="762.28" r="16.92"/><circle class="d" cx="442.26" cy="544.66" r="16.11"/><circle class="d" cx="442.51" cy="676.19" r="16.12"/><path class="d" d="M1069.38,700.02c.04,3.75-3.42,4.66-5.46,4.25-1.9-.38-5.03-1.88-4.98-5.28l.5-33.12c.98-2.27,8.2-2.54,9.54-.35l.4,34.5Z"/><path class="f" d="M1860.15,744.41c-4.06,17.5-11.66,33.49-19.38,50.09-12.25,26.37-28.01,49.51-46.97,71.45l-29.83,29.59c-26.87,23.44-57.69,40.34-89.5,56.67l-35.14,18.04c-43.01,26.19-60.58,68.7-60.66,118.85l-.28,196.25c-.06,44.14-19.15,85.48-50.87,115.26-28.94,27.17-66.41,41.04-106.36,41.04l-946.92.03c-37.48,0-71.8-12.57-100.08-36.31-38.02-31.93-57.34-78.07-57.38-127.97l-.22-319.1,2.84-85.9c.54-16.45,3.9-31.91,9.06-47.3.49-1.46-.4-2.56-1.37-3.17,13.38-11.44,28.32-22.98,45.26-29.14l3.36.11v3.05c-.94.49-1.55,1.01-1.55,3.46v480.83c.01,1.68,1.07,2.01,1.59,1.98,0,11.19,1.08,22.4,5.62,33.3,6.03,14.46,12.69,27.2,24.64,38.2,13.83,12.73,32.41,25.93,53.65,25.93l977.68-.06c20.07,0,39.4-13.23,52.58-25.33,21.65-19.87,29.66-46.58,29.67-75.36l.17-329.68,29.81-11.06c80.77-39.73,133.94-118.16,142.61-208.31l.77-179.95,33.77.41,17.36,1.01c17.62,1.02,33.55,10.47,46.57,21.86,16.25,14.22,27.62,31.33,36.68,50.83,10.83,23.29,19.99,46.64,24.4,72.05l8.39,48.33Z"/><path class="e" d="M327.1,821.93c.97.6,1.86,1.71,1.37,3.17-5.16,15.39-8.51,30.85-9.06,47.3l-2.84,85.9.22,319.1c.03,49.89,19.36,96.04,57.38,127.97,28.28,23.74,62.59,36.32,100.08,36.31l946.92-.03c39.95,0,77.43-13.87,106.36-41.04,31.72-29.78,50.8-71.12,50.87-115.26l.28-196.25c.07-50.15,17.65-92.66,60.66-118.85l35.14-18.04c31.81-16.33,62.62-33.23,89.5-56.67l29.83-29.59c18.96-21.94,34.71-45.08,46.97-71.45,7.71-16.6,15.32-32.6,19.38-50.09l4.6,50.16v34.1c.03,58.62-17.37,137.92-50.49,186.86-20.89,30.87-53.06,49.11-90.51,49.13l-77.73.03c-5,0-9.3,3.26-9.29,8.95l.23,191.29c.04,29.63-1.61,57.09-10.41,84.96-11.12,35.23-29.87,64.91-56.19,90.63-39.87,38.95-92.77,60.29-149.15,60.25l-960.89-.53c-29.63-.02-58.17-9.82-83.32-22.85-31.88-16.53-58.36-40.06-78.85-69.07-28.33-40.08-39.94-86.6-39.92-135.56l.12-297.37c.02-60.04,23.75-114.98,68.75-153.45Z"/><path class="e" d="M375.77,1282.22c-.53.03-1.58-.3-1.58-1.98v-480.83c-.01-2.45.59-2.97,1.55-3.46l.03,486.27Z"/></svg>